<svg xmlns="http://www.w3.org/2000/svg" viewBox="0 0 1165.45 785.29">
    <defs>
        <style>.cls-1,.cls-2{fill:none;stroke:#000;stroke-miterlimit:10;}.cls-2{stroke-width:0.25px;}</style>
    </defs>
    <g id="Ectalion">
        <path class="cls-1"
              d="M599.84,373.61s2.12,1.43,1.25,3.56,6.63,2.3,6.92,2.49c0,0,5.86,4.38.81,5.34,0,0-3.12.38,1.11,5.76,0,0,1,2.22-.82,2.7-2.51.67,11.93,7.94,11.93,7.94s13.64-.58,27.28,9.48c0,0,21.18-4.06,36,9.86,0,0,4.16-1.25,10.83,8,0,0,1.55,2.61,14.12,4.45,0,0,4.74,2.1,9.24,10.72l4-1.41v-5.67l3.39-1.7s4.39-9.91,12.32-7.36c0,0,2.27-1.27,2.84-2.83s3.68-1.13,4.39,0,5.94-1.42,5-3.4-4-6.8-4-6.8,6.23-3.54,8.78-1.84v-3.82l2.12-2.13h1.56s2.69-2.26,1.7-3.39,1.56.85,1.56.85,8.49-6.09,15.29,2.54l6,1.42,3.11-1.56,13.6,1,4.11,3.54s5.66-1,9.06,2.13v1.7l3-.14,2.41,2.4v3.1l3.48,3.47-1.38,1.79-.3,6.83,3.27,2.09s5.25-3.08,8.32,1.58c0,0,2.44-1.25,9.28-.56l.44-3.4,4.53-3.14-1-2.26.43-2.62,3.57,3.75,1.84.35a10.65,10.65,0,0,1,9.41,3.57s2-3.57,11.94-2.87l1.57-3.75-2.26-2.7-2.27-7.33-3.92-1,1.22-4.1s.61-1.83,3.66-2.35,2.87-2,2.87-2l.18-2.35-4.36-4.8s-4.36-1-4.88-1.24-1.83-4.07-1.83-4.07,6.27-3.93,7.49-7.06l5.5-.79V383.2l3-1.48.44-2.36.34-5.23-.61-1.57a7.85,7.85,0,0,1,2.71-3c1.57-.79,2.52.17,2.61-3.14s-4.53-3.84-5.93-3.75-.87-4.36-.78-4.53a13.53,13.53,0,0,1,2.7,0s1.14-3.92-2.09-3.31-2.7-2.36-2.53-3.23,2.36-1.57,1-4.53c0,0,4.27-1.13-.52-6,0,0,7.75-1.65,5.84,5l-1,1.66,3.22.52,1.66,1.92s5-1.13,4.88-.61-.52,4.18-.52,4.18.78,1.92-2,3.32c0,0,3.4.78,3,2.18l3.74.34s-1.22,3.14-2.26,4l-.18,2.62L889.58,369l4.27,1,.26,2.53L890.62,374l.18,2,2.61,2.62,1.92-1.92,3.57.35s-.17-1.57,6.8.87a15.63,15.63,0,0,0,4.88-2.44,8.63,8.63,0,0,1,6.19,4.53l3.4.09s1.39-9.19,6.89-10.29c.43-.08,5.4-3.31,10.81-8.37,0,0,2-1.3,4.62,3.93,0,0,5.49-5.84,8.11-5.06,0,0-1.14-4.36.78-7.58l-2.62-.79-.61-4,2.27-3,.26-5.23,4.27-.61.7-3.4h.52v-2.62L953,331.16a11.75,11.75,0,0,1,1.74-4.1s-1.92-1.4-1.66-5.14h1.75l.35-2.79s-9.59-5.76-2.71-13.6l-5.75-11.33s4.1-.09,4.71-.61-1.05-5.76-.44-6.11a51,51,0,0,1,5.58-1.22l3.31-5.05,3.93,1.39s3.66-.61,3.83-1.92-2-3.83-3.4-5.4-1.92-4.88-1.92-4.88-1.48.17-2.18-7.5l-5.31-4.62s-.26-3.66-1.14-5-3.4,0-3.4,0l-1.22-4.18s1.66-.09,1.83-.44-.78-2.61-1.13-5c0,0-5.4-3-8.28-3,0,0-2.09-16.3-6.8-17.17l-.44-6.45-3.83-5.41-4.19-.43s-6.36-12-7.23-15.87l-3.66-2.09h-5.06L907.45,195l-1.31-.52-7.93.79L896,199.7l-3.23,1.66s-2.31,3.72,4.85,4c0,0,2.54-2.54,4,2.53,0,0,4.79,1.21,2.28,4.11L908,215.5l3,5.61s.17,4.44-1.16,6.67c-.29.49,0,3.77,0,3.77l1.83,3.29,1.45,7.74-3.09,2.71.29,2.9-1.94,1.36s.49,3.86,1.65,4.73l.87,5.42-3.29-1.64-.58,2L903.18,262l.29,10.35-1.06,1.26s2.9,5.32,5.12,4.84c0,0-4.25,1.93-7.35.58l.78,2.61,3.48,2.9-.19,2.61-8.71.39-4.06,3.19-.39-4.26-5.22-2.8-7.55,1.16-2.51,5.42-6.09.29v-3.29s1.35-2.71-8.9,1.25l-1-.67-2.32,2.9a8.83,8.83,0,0,0-9.38-.29l-3.1-3.77,2.52-4.36s-2.52-2.8-5-1.74c0,0-.1-5.8,4.83-6.67,0,0,.29-3.1-1.45-4s-6-1.25-6-1.25-2.33-9.1-5-14.22c0,0-7.07-.78-8.32-2,0,0,.87-7.74-3.77-10.45l.29-4,2.61-2.13-3.78-3.29-4.15,1.06.77,3.87s-1.16-.58-3.48,1.74l-3.77.2-4,1.35-2.42-1.45.29-3.19-1.93-2.32,1.84-5.23.87,1.07-.2-4-10.06,3.68-2.51,4.64s.19,4.84-.58,5.8-5.42,1.07-5.42,1.07a11.58,11.58,0,0,0-3.09,3s-5.42-1.65-8.52-.78l-.19,3-3.48,2.22.19,2.81-3.58,3.19-3.48-1-1.45,1.16h-2.42l-.19,4-3,.58v3l-7.16,1.55s-2.8-.58-4.35,3.87c0,0,3,.38,3.77,4.93l-6.86,5.42v3.57l-1,.39-1.26,3s-.77,2.71,1.16,3.77,4.26,4.55,3.39,6.87,3.77,2.32,3.77,2.32,1.55,4.84-1.06,7.45c0,0,7.64,2.61.09,7.45,0,0,1.26,11.8,3.87,9.38s5.32,1.93,5.32,1.93-2.42,6.48,3.39,9.87l1.74,4-.49,5.32s-7.71,9.48,1.26,9.48c.77,0,6.09-.58,7.35,5.13,0,0,1.94,2.51,3.48,2.42s-2.52,3.89-2.22,4c4.53,1.11,1.06,3,1.06,3s-6.48,1.26-1.45,3.19c0,0-4.45,9.19-8,1.74,0,0-4,2.71-5.7,2.32s1.26,3.68-11.51,1.65c0,0-3.19,3.87-13.45,2.22l1.26,3.49s-7.64,3.57-8.51.38-3.19-5-3.77-5-24.28,2.61-27.67-1.25-3.48-5.13-3.48-5.13,3.77-1.84.78-3.29-1.94-3.09-.29-3.77.17-3.58-1.61-4,2.19-3.67,5-2.13-3-5.51-4.54-5.8,3.28-3.09,6.19-2.32-1.94-4.06-11.51-5.13c0,0,1-1.64.87-1.93s-1.36-3.39-2.42-2.9,1.74-4.26,2.13-4.26,1.25-.87,1,3.68c0,0,8.13.77,9.58-3.87s-4-1.45-4-1.45-6.57-.39-5.32-1.55,3.87-5.22-.77-4.06-8.74,1.8-7.76.22c1.33-2.15-24.94,8.08-30.17,26.17,0,0-1.56,6.15-9.2,5.52,0,0-7.76,7.21-11.83-1.68,0,0-17.88-4.81-22.91-4.71a3.06,3.06,0,0,1,1.35,3.43s-18.22,10.71-31.06,8.36c0,0,.64.13.67,2,0,0,3,.91,0,3.55,0,0-.91,1.35,4.67.92,0,0,2.45,6,4.47,1,0,0,.09-11.1,8.7-1.54C593,371.16,593.3,372,599.84,373.61Z"
              transform="translate(-6.91 -5.29)"/>
        <path class="cls-1"
              d="M877.78,204.05l-.58-3.51-2.58-.82v-1.41l-3.4-1.52s-.23,4.45-6.2,5c0,0,.58,3.63,2.92,4.57l1.64-.94,3.28.36,1.76-2.35Z"
              transform="translate(-6.91 -5.29)"/>
        <path class="cls-1"
              d="M870.87,187.19l.53,2h8l-1-4s3.62,0,4.23-.48c0,0,2.76-4.53,6.14-1.53l2.69-2.54-4.12-6.52-3-.61-1,3.22-2.68.08L880,179.2l-3.45-.23-.08-3.46-2.14-1.22s-2,1.3-5.83.92c0,0,.61,3.3-4.76,5.44,0,0,1.07,4.68,4.37,6.6Z"
              transform="translate(-6.91 -5.29)"/>
        <path class="cls-1"
              d="M853.91,187.71l3.37,1.47A18.37,18.37,0,0,0,855.9,194h-2.76l-.69,6.29-6.29.69-.31,2.15h-4.22s3.15-4.06-2.76-4.06l-1.69-2.28-3.83,1.28-2.23-2s.08-3.6,3.07-4.22a7,7,0,0,1,1.78-3.4.47.47,0,0,0,0-.74c-.74-.57-2.6-1.77-1.3-3.45a13.42,13.42,0,0,0,4.83-1.77s3,5.53,4.3,5l.42,1.7,3.8-.47,2.23.84Z"
              transform="translate(-6.91 -5.29)"/>
        <path class="cls-1"
              d="M986,292s.57,3.9,1.81,5v2.57a23.16,23.16,0,0,1,2.94,1c.67.38,1.62-2.1,1.62-2.1l4.38-.28s.85-1.58-.76-1.93.54-4.44,1-3.21l.82.1s1.72-2.86,3.71.95c0,0,3.62-2.95,5.61-1.52s0-4.66,0-4.66,2.19-2.32,4.09-1.65v-6.06s-6.37-1.71-3.61-6.37l-.19-1.24a8.77,8.77,0,0,1-3.71.76l-.09,4.28,1.42.95-.66,2.95s-5.33-1.61-3.81,2.19l-.09,2.87h-1.86l-1.47.55s-2.57-6.46-8,3.43Z"
              transform="translate(-6.91 -5.29)"/>
        <polygon class="cls-1" points="1004.94 267.39 1004.94 269.29 1008.07 269.29 1007.02 266.69 1004.94 267.39"/>
        <path class="cls-1"
              d="M933.5,378.44s-1.69.93-1.69,3.88c0,0,5,1.26,6.49.84s1.43-2.31,1.43-2.31,4-1.56,3.88-3.33-.67-3.62-2.87-4.47C940.74,373.05,936.79,378.28,933.5,378.44Z"
              transform="translate(-6.91 -5.29)"/>
    </g>
    <g id="Azilian">
        <path class="cls-1"
              d="M646.81,355c.49-.88,4.29-18.66,31.1-27.93,0,0-3.57-4.93-.87-5.37a23,23,0,0,0,5.24-1.65s-6-6.14-3.3-6,8.68-4.19,8.68-6.29-1.34-1.94-5.38,0c0,0,2.24-5.68-4.49-5.83s1.34-6.59,2.54-7,3.44-3.29-4.64-4.94c0,0-8.68-12.87-8.45-4,0,0-6.52,2.55-4.57-4.49s-6.59-12.12-5.39-5.54-10.78-5.09-9-7.48c0,0-2.4-3.6-4.64,2.24l-7,.6s-1.35-.75-1.35,3l-2.86.32-4.5,5.26.77-8.13-1.63-2,1.63-2.38-3.16-3.84s-6.8,1.53-8.71-1.35l-3.35.77s-3.45-1-5.55.48-4.5,3.06-5.94,2.3c0,0-1.34-7.18-2.3-7.18s-2.77-3.93-4.59-3.26c0,0-1.31-2.29-5.44-3.16,0,0-1.26-2,.65-5.64a18.51,18.51,0,0,1-1.72-3.93c-.29-1.43-5.26-2.2-5.26-2.2l1.91-4.31s1.53-6.79,3-7.56a10.22,10.22,0,0,1-2.78-5.17l-2.1-.48,1.24-1.53-2.11-2.68-3-.76s-.58-3.74-5.84-1.34c0,0-2.4-1.44-2.2-3.74a5.3,5.3,0,0,0-3.74-1.82v-3.63a10.66,10.66,0,0,1-2.43-11,.17.17,0,0,0-.22-.22c-2.41,1-17,6.33-37.45,4.93l-9.67,3.64,6,12.25,2.2,6.32,6.13,8.52L546,243.7l15.22,8.13s3.16,11,2.59,12.26-10.91,8.51-22.5,5.07c0,0-4.78-7.28-5.07,0,0,0-3.83.67-4,3.54,0,0-6.7-.38-6.51-.77s0-3.92,1.34-6.12-3.06-4.5-3.06-4.5-6.7.67-4.69,4.5-3.54,0-3.54,0l-7.18,3.92s2.87,6.13-3.55,2.68c0,0-8.71-.09-3.06,6.32,0,0-4.69,9.67-14.64,1.72,0,0-3.16,5.56-5.17-2l-5.94.29,2.68,4.5s-2.58,4.12-11.39-4.79c0,0-5.36-1.91-.86,5.84,0,0-4.31,6.13-4.79-.95,0,0-5.55-.29-4.78-3.26,0,0-8.62,1.53-10.24-1l-1.25,3.74,4,3.25s-6.79-.38-.38,5.55c0,0-6.7,7.47-11.58,3,0,0,2.49-5.74,1.72-6.89s-8.33-4.79-8.33-4.79-4.4,5.36,2,10.05a3.24,3.24,0,0,1-2.39,2.2c-1.82.29-.67,4.5,3.54,6.13,0,0-6.22,2.39,2.2,5.65,0,0-11.58,5.17-15.41,2.77s.1,14.36,10.91,16.47S444.7,325,444.7,325s.57-7.94,3.35-7.37,8,5.08,8.23,7.09,3.35-1.82,3.35-1.82-.67-5.94,5.36-1.53c0,0,4.31,4.11,2.4-3.16,0,0,7.75-3.16,10.91-1.82s2.49,3.54,2.49,3.54a1.79,1.79,0,0,0,2.87-.67c1.15-2.1,6.89,3.83,6.41,5.65s-2.77,7.27,6.51,5.74c0,0,4.5-.76,1.72,4.88,0,0,4.6-.86,5-1.91S506,335.3,506,335.3a6,6,0,0,0,1-3c-.1-1.34,7.37-.48,7.47.09s5-6.22,15-6.51c0,0,5.27,2.49,5.36,3.54s-.19,4.22-1.91,3.64,1,4.4,3.25,3.64-.86,4.88-1.91,4-.38,6.89,3.83,3.54c0,0,5.36,1.15,5.65,1.05s13.3-1.05,13.78-3.44,6.13-8,11.2-4.41c0,0,16.27,1.15,18.19,5.36s6,9.19,15.7,9.86,25.36,4.67,25.36,4.67,3.16,8.93,10.72,1.46C638.63,358.85,643.69,360.52,646.81,355Z"
              transform="translate(-6.91 -5.29)"/>
        <path class="cls-1"
              d="M592.06,234c.06-.58,1.21-3.73,1.21-3.73s2.73-.5,2.93-2.92c0,0,3-.21,3.33,2.62l1.91,1.31v1.92l-3.63.4-1.06,1.62S591.76,236.83,592.06,234Z"
              transform="translate(-6.91 -5.29)"/>
        <path class="cls-1"
              d="M650.78,212.21s4.74,1.72,5.44,3.64l2.63-2.43-.71-3,4-1.21,2.32.5,3.33-2.82,2.62,1.51-4.64,3.53,1.41,2.12-1.31,4h6.46l.5-3.12,4.44-.71,1.41-3.93,8.94-.21s1.45-4.54,7.3-1.51v-2c.61-1.66,2.79-4.22,9.69-7v-7.06s-3-2.22-5.75-2l2-6h7.46l-2.22-6.46-3.53-1.61.71-5.45-7.16-1.61L693,164.9l-4.64,1.21-6.56,5.95.71,6.15a32,32,0,0,1-6.26,1c-3.93.31-4.64,1.52-4.64,1.52s-3.63-1.21-3.63-2.53-4.85-1.21-4.85-1.21l-.8,6-2.42.2-2.93,3.53,2.72,4.24-3.93,4.91-2.32-1.48-5.85,2.12a8.87,8.87,0,0,1,1.61,5.54A7.57,7.57,0,0,1,650.78,212.21Z"
              transform="translate(-6.91 -5.29)"/>
        <path class="cls-1" d="M670.25,166.41s-.71,3.13,1.21,4a3.5,3.5,0,0,0,3.63-.71v-3.33Z"
              transform="translate(-6.91 -5.29)"/>
    </g>
    <g id="Merialeth">
        <path class="cls-1"
              d="M772.46,366.68c3-.62-1.25-2.09-1.35-2.38s3.83-3.73,2.28-3.63-3.63-2.6-3.63-2.6c-1.26-5.7-6-4.66-6.74-4.66-9,0-1.45-10.69-1.45-10.69l.1-4.66-1.53-4.13c-5.81-3.39-3.39-9.87-3.39-9.87s-2.71-4.35-5.32-1.93-3.87-9.38-3.87-9.38c7.55-4.84-.09-7.45-.09-7.45,2.61-2.61,1.06-7.45,1.06-7.45s-4.64,0-3.77-2.32-1.45-5.8-3.39-6.87-1.16-3.77-1.16-3.77-1-2.4-4.78-.25c0,0-.45.7-3-1.71l-4.32-.06-3.1,1.39-.07-2.41L721.67,279l.31-1.77s-2.72-1.34-1.71-3.05,2.41-2.09,3.43-4.94a6,6,0,0,1,3.8-2.48s1.39-1.45-1.08-5.83a33.62,33.62,0,0,0-7.8-.89l-.44-1.77s-3.74-1.78-5.39-1c0,0-.89-.25-.83,2.16a8.85,8.85,0,0,0-7.73,4.18s-2.73-2-3.81-1.65l-.12-2.28s.5-1.58-2.22-1.2c0,0-2.54-4.38-5-2.35,0,0-9-6.72-15.16-2.28a39.31,39.31,0,0,1-9.76,1.14,3.68,3.68,0,0,0-2,2.28l-1.79-1a.38.38,0,0,0-.56.28l-.37,2.74s-5.46-.63-6,2.54l-3.24,1.27,1.14,1.64s-3.8,0-4,2.59l-2,.56c-1.79,2.39,9.52,14.07,7.15,7,0,0-.78-2.62,1.58-2.82s6.86,1.37,5.05,12.05c-.35,2.1,3.39,1,3.39,1,.28-9.67,9.67,3.95,9.67,3.95,8.9,1.63,6.15,5.58,6.15,5.58-8.48,6.07-5.65,6.21-5.65,6.21,8.75-.14,6.7,5.37,6.7,5.37,2.69-1.69,4.31-.48,4.31-.48,4.64,4.12-8,8.76-8.5,9.07s4.85,5.47,4.85,5.47c-1,.92-6.29,1.94-6.91,2.46s2,4.47,2,4.47c-1.16,1.45,3,1.05,7.63-.11s2,2.9.77,4.06,5.32,1.55,5.32,1.55,4.79-3.35,4,1.45c-.79,4.56-8.15,6-8.15,6l-2.8-.62-.31-3-1,2.28,2,2.69a8.91,8.91,0,0,1-.38,2c9.57,1.07,14.62,6.71,11.62,6.73s-7.36.83-6,1.66c.69.43,7.06,8.5,4.25,6.95s-7.24.34-5.46.73a3,3,0,0,1,2.46,3.83,14.72,14.72,0,0,1-2,1.87c-1,.79,2.49,2.28,2.49,2.28,2,1.08-1.26,3.6-1.26,3.6s-.49-.05,2.89,3.82,26.84,1.19,27.42,1.19,3.07,2.62,3.94,5.81,6.74-.73,6.74-.73l-1.35-3.83C742.15,379,746.42,375,746.42,375c12.77,2,9.46-1.84,11.2-1.45s6.33-2.39,6.33-2.39c3.58,7.45,6.64-.72,6.64-.72S765.82,368,772.46,366.68Z"
              transform="translate(-6.91 -5.29)"/>
        <path class="cls-1"
              d="M772.46,366.68c3-.62-1.25-2.09-1.35-2.38s3.83-3.73,2.28-3.63-3.63-2.6-3.63-2.6c-1.26-5.7-6-4.66-6.74-4.66-9,0-1.45-10.69-1.45-10.69l.1-4.66-1.53-4.13c-5.81-3.39-3.39-9.87-3.39-9.87s-2.71-4.35-5.32-1.93-3.87-9.38-3.87-9.38c7.55-4.84-.09-7.45-.09-7.45,2.61-2.61,1.06-7.45,1.06-7.45s-4.64,0-3.77-2.32-1.45-5.8-3.39-6.87-1.16-3.77-1.16-3.77-1-2.4-4.78-.25c0,0-.45.7-3-1.71l-4.32-.06-3.1,1.39-.07-2.41L721.67,279l.31-1.77s-2.72-1.34-1.71-3.05,2.41-2.09,3.43-4.94a6,6,0,0,1,3.8-2.48s1.39-1.45-1.08-5.83a33.62,33.62,0,0,0-7.8-.89l-.44-1.77s-3.74-1.78-5.39-1c0,0-.89-.25-.83,2.16a8.85,8.85,0,0,0-7.73,4.18s-2.73-2-3.81-1.65l-.12-2.28s.5-1.58-2.22-1.2c0,0-2.54-4.38-5-2.35,0,0-9-6.72-15.16-2.28a39.31,39.31,0,0,1-9.76,1.14,3.68,3.68,0,0,0-2,2.28l-1.79-1a.38.38,0,0,0-.56.28l-.37,2.74s-5.46-.63-6,2.54l-3.24,1.27,1.14,1.64s-3.8,0-4,2.59l-2,.56c-1.79,2.39,9.52,14.07,7.15,7,0,0-.78-2.62,1.58-2.82s6.86,1.37,5.05,12.05c-.35,2.1,3.39,1,3.39,1,.28-9.67,9.67,3.95,9.67,3.95,8.9,1.63,6.15,5.58,6.15,5.58-8.48,6.07-5.65,6.21-5.65,6.21,8.75-.14,6.7,5.37,6.7,5.37,2.69-1.69,4.31-.48,4.31-.48,4.64,4.12-8,8.76-8.5,9.07s4.85,5.47,4.85,5.47c-1,.92-6.29,1.94-6.91,2.46s2,4.47,2,4.47c-1.16,1.45,3,1.05,7.63-.11s2,2.9.77,4.06,5.32,1.55,5.32,1.55,4.79-3.35,4,1.45c-.79,4.56-8.15,6-8.15,6l-2.8-.62-.31-3-1,2.28,2,2.69a8.91,8.91,0,0,1-.38,2c9.57,1.07,14.62,6.71,11.62,6.73s-7.36.83-6,1.66c.69.43,7.06,8.5,4.25,6.95s-7.24.34-5.46.73a3,3,0,0,1,2.46,3.83,14.72,14.72,0,0,1-2,1.87c-1,.79,2.49,2.28,2.49,2.28,2,1.08-1.26,3.6-1.26,3.6s-.49-.05,2.89,3.82,26.84,1.19,27.42,1.19,3.07,2.62,3.94,5.81,6.74-.73,6.74-.73l-1.35-3.83C742.15,379,746.42,375,746.42,375c12.77,2,9.46-1.84,11.2-1.45s6.33-2.39,6.33-2.39c3.58,7.45,6.64-.72,6.64-.72S765.82,368,772.46,366.68Z"
              transform="translate(-6.91 -5.29)"/>
    </g>
    <g id="Bjorgnar">
        <path class="cls-1"
              d="M517.34,203.77l.3-.11,9.86-3.72s16.4,2.44,38.27-5.18l-.41-2.36s-4.5-2.78-4.71-4.4-.45-5-.1-5.12,2.33-.4,2.68-.86,3.19-5.82,11.65-6.37a17,17,0,0,1,1.57-5.07c.2-.35.4-9.56.4-9.56s0-1.22,3.34-1.42l.51-4.1s2.78-2,2.83-2.13,0-3.84,0-3.84a19,19,0,0,0-4.91-1.32s-.5-5.32-4.45-3.19l-3.6-.76-1,.51.56-5.32h2.48l.61-3.14-1.57-1-5.27,2-3.08.1-2.49,1.11-.45-3.24-2.28-.91.86-5.57,1.93.66-.21,3.49,2.64.41,2,1.37,3.74-2.54,1.68-.15-.11-2.58,4.81-2.18.15-3h-3.08l-2.94-2.13.3-4.3,5.37-1,.35-2.18s5-1.52,5-1.67,1.11-3.09,1.11-3.09l-3.49-.55-1.37-1.88-5.52-1.11s1.07-2.94-4.76-3.14l-.65-3H563l-4.4,4.26-4.3.6-2.33,2-2.69-2.84a19.84,19.84,0,0,1-3-.15c0-.15-1.47-2.33-1.47-2.33a28,28,0,0,0-4.1,0,27.42,27.42,0,0,1-2.58,1.27l-1.37,5.52-5.26.55-.61,1.83-5.62-.11L523,104.78h-1.26l-.36,1.67-1.72,1.06,1.17,2.58s-6,4-5.88,3.9,5.22-6.63-1.72-6.22l.66-3.29,3.9-.11.45-2.53,1.57-.3,1.07-3.9-2.58-.4,1-3.09-3.14-1.72L516.06,89s-5.77-2.38-7.54-2.48c0,0,3-3.5,3.13-5.12,0,0-6.37-6.42-4.75-7L501,72.69l-.3,1.36-3,1.57-3.44-2.93.86-2.74s-5.62-3.69-5.21-4.5H479l-1.46-3.54-3.7-.36s-.71-4-2.63-3.8-9.72,3.9-9.72,3.9V72.54l-4.2-.11a31.52,31.52,0,0,1-4.61,3.6,43.27,43.27,0,0,1,3.55,4.76l.86-.51a20.16,20.16,0,0,0,1.72,2.23c.05-.15,3.54-3.44,3.54-.15,0,.25.2,5.77.2,5.77s-1.16-.81-1.21-.66-3,1.62-3,1.62l1.42,3.9s-4.25.7-5.31,2.22-.63,5.22.55,5.22c.46,0,5.11.5,5.11.5a7.44,7.44,0,0,1,1,4.56l3.49-.76s.2,3,2.63,4.15l-2.68,2.48-3.14-.86-2,5.11,3,4.3s-2.71-.37-2.77,3.16L456,126s3.59,1,3.77,3.78-1.23,3.21-1.23,3.21v2.48l-1.55.06s-.19,9.41,3.9,8.17l.68,4.52s4,1.79,4.45,5.51L465,160s4.33-2.91,4.08-.5-1,3-.61,2.73,1.73.37,4.14-3.53c0,0,.81-2,4.27-.68,0,0,.81.43,4.15-2.35,0,0,3.4-1.67,4.58,5.57a3.21,3.21,0,0,1,1.55,3s1.05,2,2.6,1.11c0,0,3.34-4.58,5.63-1.67l3.9.13,1.73,1.73,1.36,2.72s.74,5.26,2.72,6.19,2.11,8.48,2.85,9.35a75.5,75.5,0,0,1,4.21,7.11C512.36,191.46,512.61,199,517.34,203.77Z"
              transform="translate(-6.91 -5.29)"/>
        <path class="cls-1"
              d="M488.43,57.74c2.9.31,3.27,2.32,3.27,2.32l1.81,1v2.27c0,.27-3.26-1-3.26-1h-9.34V60.06c.25-.14,2.52-2.88,2.52-2.88l.23-3s4.13-.52,4.48-.58,1.4,1,1.4,1Z"
              transform="translate(-6.91 -5.29)"/>
        <polygon class="cls-1" points="490.06 44.1 489.08 47.07 492.45 47.07 492.45 44.97 490.06 44.1"/>
        <path class="cls-1" d="M481.74,44.51c-.22,0,0,3,0,3l4.31.06.93-2.32A10.65,10.65,0,0,0,481.74,44.51Z"
              transform="translate(-6.91 -5.29)"/>
        <path class="cls-1"
              d="M471.74,48.58a7.34,7.34,0,0,0-1.1,5.06s1.16-.58,1.1.7c0,0,2.39-.88,2.68,3.77l3.37.39,2.33-3.7-2.56-1.26s1.22-4.21-4.36-3.86Z"
              transform="translate(-6.91 -5.29)"/>
        <path class="cls-1"
              d="M461.57,51.37c-.28.44.93,3.61.7,3.66s2.79,0,2.79,0l.93-1.1,1.39.81,1.16-.7V50.5S463.83,47.82,461.57,51.37Z"
              transform="translate(-6.91 -5.29)"/>
        <path class="cls-1"
              d="M453.25,52.36a11.23,11.23,0,0,1-.62,4.3c-.77,1.92,3.94,2.27,3.94,2.27s1.28-2.21,2.85-2.27L459,52.88l-1.05-1.22S454.18,52.71,453.25,52.36Z"
              transform="translate(-6.91 -5.29)"/>
        <path class="cls-1"
              d="M447.37,45.3a1,1,0,0,0-.86,1.19,9.92,9.92,0,0,1,.17,1,35.27,35.27,0,0,0,3.14,2.33l4.13.35V49.1l2-.52.35-2.61-4.53-1.23Z"
              transform="translate(-6.91 -5.29)"/>
        <path class="cls-1"
              d="M435.54,54.63c-.56-.29,1.78-4.77,1.78-4.77s4.77-.35,5.06-.82,1.16,1.57,1.16,1.57l2.39,1-.47,6.08-4.68,1.19-2.53-.82S439.61,56.66,435.54,54.63Z"
              transform="translate(-6.91 -5.29)"/>
        <path class="cls-1"
              d="M426,47.53c-.05.24,2,1,1.11,3.08l2.2.53,1.75-1.22s-2.44-3.08-1.86-4S426.45,45.56,426,47.53Z"
              transform="translate(-6.91 -5.29)"/>
        <path class="cls-1"
              d="M416.39,70.91c-.06-.18.52-1,.52-1l2.56-.7.17,1.75a20.44,20.44,0,0,1-2,1.1A8.09,8.09,0,0,1,416.39,70.91Z"
              transform="translate(-6.91 -5.29)"/>
        <path class="cls-1"
              d="M431.61,68.49c.2,1,1,3.52,1,3.52s3.72-.06,4.19-.93-1.11-5-1.11-5-2.26,0-3,1.45c-.41.85-.73.91-.94.81A.13.13,0,0,0,431.61,68.49Z"
              transform="translate(-6.91 -5.29)"/>
        <path class="cls-1" d="M425.58,83.76c0-.29-.88-3,1.27-3.49s4.48.11,4.25.35a24,24,0,0,0-1,3.14Z"
              transform="translate(-6.91 -5.29)"/>
        <path class="cls-1"
              d="M440.29,80.09c-.47,0,.69-2.32.69-2.32l4.95-.35,1.33.46,2.5-2.67s1.33,3.72,2.79,4.42l-2.32,2.62-3.14-.33-1.63,1.49S441.62,80,440.29,80.09Z"
              transform="translate(-6.91 -5.29)"/>
        <path class="cls-1"
              d="M448,53.53a.39.39,0,0,0-.54.37l.32,7.12a7.16,7.16,0,0,0,.81.53c.18.05,2.71,1.2,3.26.52l1.8-2.27s-4.42-.41-3.72-5.46Z"
              transform="translate(-6.91 -5.29)"/>
        <path class="cls-1" d="M454.65,61.55c-.12.34-.47,3.48-.47,3.48l.47.41-.76,2.09.38,2.1,4.33-.47.58-1.51v-6.1Z"
              transform="translate(-6.91 -5.29)"/>
        <path class="cls-1"
              d="M423.48,57.48c-.17.11-2,3.54-2,3.54s2.44,2,3.89,1.86a7.88,7.88,0,0,0,3.17-1.57s.67-2.77,0-2.81-3.38,0-3.38,0Z"
              transform="translate(-6.91 -5.29)"/>
        <path class="cls-1"
              d="M439.12,62.65c.47-.06,5.41-2.32,5.88-2.47s1.22,1.51.93,3.18c0,0,6.32.51,5.48,5.1a21.64,21.64,0,0,0-3,4.25l-3.9,2.5-4.29-2,1.68-3.54-2.39-1.57Z"
              transform="translate(-6.91 -5.29)"/>
        <path class="cls-1" d="M431.75,162.17c-.08.25-1.62,2.21,0,2.64l3.31.44.47-.82-1.77-1.56Z"
              transform="translate(-6.91 -5.29)"/>
        <path class="cls-1"
              d="M447.05,162.17c-.35,0,.87-3.4,4.84-4.13,0,0,.69.76-.3,2.06,0,0,1,2.17,2.67,1.82s1.12,5.31-.39,5.83c0,0-1.94-.56-1.68-.65a12.61,12.61,0,0,0-2.36-.49.09.09,0,0,1-.05-.16C450.43,165.79,452.9,162.88,447.05,162.17Z"
              transform="translate(-6.91 -5.29)"/>
        <path class="cls-1"
              d="M448.31,176.38c0-.26,3.92.26,4.66-.21s3.28,1.89,1.55,3.1c-1,.73-1.51.83-1.72.79a.53.53,0,0,0-.46.19,4.45,4.45,0,0,0-1.2,2.56s-2.1,0-1.89-1c0,0-2.23,0-2.26-.05s0-1.08,0-1.08A33.67,33.67,0,0,0,448.31,176.38Z"
              transform="translate(-6.91 -5.29)"/>
    </g>
    <g id="Vaalyniel">
        <path class="cls-1"
              d="M464.85,161.36s-1.39.68.1,4.5.18,7.64-1.73,7.13-.84,4.83,1.19,3.93,6-1,5.85,4.12c0,0-7.44-.81-6.74,5.53l-7.74,2.71-3.72,7.14-8.34,5.43v7.34s-4.12,3-6,2.61-8.55,5.43-8.55,5.43-.2.91-7.94,1.61c0,0-1.53.2-1.67,3.62a6.12,6.12,0,0,0-3.46,1.91,8.43,8.43,0,0,0-7.14,3.92s-.6,4.93-2.11,5.63a4.49,4.49,0,0,1-3.22,0l-1.81-2.38v1.88s-4.74,1.14-4.62,1.4,2.31,4.23,2.31,4.23l4.53-.61,7.84,4.23s4.2-3.93,9.63-1.82a11.07,11.07,0,0,0-.38,5.64s1.5-2.92,5.73.5l-.71,6.53s-3.72-.3-6.13,1.31c0,0-2-3.52-4.62.91,0,0-5.53,2.51-9.05,1.1l.2-3.92a14.64,14.64,0,0,0-5.13-.8l-.7-2.92L394,248.1l.5,4s-2.61,3.92-9.75,4.62c0,0-1.2,4.32-3.32,4.53h-3.21l-2.11,5.63-5.94,2.41-1.5-2.41-4.23,1.4s-4.32,1.51-.7,6.14c0,0-.2,2.91-2.92,2.81,0,0-6.43-2.21-4.42,5.13l2.51,2.51s3.32.2,5,2.11,18.2,15,24.93,14.48l31.19,7c4.46,2.79,14.21-1.65,14.21-1.65-6.13-2.8-1.81-5.34-1.81-5.34-3.49-1.52-4.32-7-2.5-7.29s1.93-1.29,1.93-1.29c-6.41-4.69-1.55-11-1.55-11s9.15,4.4,9.91,5.55-1.67,6.73-1.67,6.73c4.88,4.5,9.43-2.74,9.43-2.74-6.13-5,.18-5.84.18-5.84l-3.72-2.48,1.66-5.05c1.63,2.49,11.86.77,11.86.77-1.54,3.92,4.17,3.27,4.17,3.27.48,7.09,3.72,1.86,3.72,1.86-4.5-7.75,1.57-6.5,1.57-6.5,8.81,8.9,10.49,5.43,10.49,5.43l-3.24-5.2,8-.18c2,7.56,4.59,1.72,4.59,1.72,10,7.94,13.77-.4,13.77-.4-5.64-6.42,3.24-7.47,3.24-7.47,6.42,3.45,3.54-2.68,3.54-2.68l7.18-3.92s5.56,3.83,3.55,0,4.69-4.5,4.69-4.5,6.34,3,5,5.22-1.22,5.2-1.41,5.58,4.64.59,4.64.59c.19-2.87,4-3.54,4-3.54.29-7.28,6.39-.11,6.39-.11,11.58,3.45,20.54-3.25,21.11-4.5l-2.52-11-15.19-8.21-13.76-12.11-6.31-8.78c-1.49-6.93-7.91-18.27-7.91-18.27-4.73-4.77-5.29-12.28-5.54-12.78a79.89,79.89,0,0,0-4-7.29c-.74-.86-.95-8.92-2.93-9.85s-3-5.44-3-5.44l-1.24-2.72-1.21-2.37-3.9-.12c-2.29-2.91-5.63,1.67-5.63,1.67-1.55.86-2.6-1.12-2.6-1.12a2.71,2.71,0,0,0-1.95-2.73c-1.18-7.24-4.18-5.87-4.18-5.87C477.81,159.4,477,159,477,159c-3.46-1.3-4.27.68-4.27.68-2.41,3.9-4.88,3.24-5.25,3.55a9.86,9.86,0,0,0,.87-3c.24-2.41-3.19.77-3.19.77Z"
              transform="translate(-6.91 -5.29)"/>
        <path class="cls-1" d="M515,164" transform="translate(-6.91 -5.29)"/>
    </g>
    <g id="Norsog">
        <path class="cls-1"
              d="M601.54,353.48c-11-.42-16-10.71-16-10.71-2.22-3.1-16.44-4.31-16.44-4.31-3.6-3.32-10.17.77-10.71,3.94-.4,2.4-11.7,3.14-11.7,3.14s13.56,4.89,16.76,12.33a35.1,35.1,0,0,0,9.89,6c5.65,2.16,14.86,1.1,31.09-7.43C604.44,356.46,605.86,353.65,601.54,353.48Z"
              transform="translate(-6.91 -5.29)"/>
    </g>
    <g id="Naaleven">
        <path class="cls-1"
              d="M445.16,326s.57-7.95,3.35-7.37,6.74,5.37,7.51,7.23c.5,1.19,4.07-2,4.07-2s-.67-5.93,5.36-1.53c0,0,4.59,3.71,2.68-3.56,0,0,7.7-3.22,10.62-1.42a3,3,0,0,1,1.28,3.39s2.94,1.59,4.08-.52,5.69,3.94,5.21,5.76-1.08,6.92,8.2,5.39c0,0,2-.32-.74,5.33,0,0,6.11-1.38,7-2.12s2.33,2,2.33,2,1.4-1.92,1.3-3.26,7.1-.42,7.2.15,4.53-6.25,14.58-6.53c0,0,4.79,2,4.88,3.07s-.5,3.29-2.22,2.72,1.42,5.66,3.62,4.89-.6,2.66-1.94,2.47.38,8.59,4.59,5.24c0,0,6,1,6.34.91l1.27-.37s15.12,5.83,17,12.55c0,0,6.82,5.42,10.32,6.37a2.51,2.51,0,0,1,1.24,2.62s2.69.74,0,3.56c0,0-1.42,1.88,4.75,1.68,0,0,3.56,6,6.08.39,0,0-.4-9.38,7.21-1.53,0,0,.5,1.48,7,2.92,0,0,1.69.89.85,3.55,0,0,1.17,3.26,7.64,2.57,0,0,3.26,2.92.6,3.76s-2.18,3.55.59,6.57a1.3,1.3,0,0,1-.4,2s-4.15-2-6.62.89l-3.36.25-1.39-1.16a.15.15,0,0,0-.18,0l-1.64,1.17s-2.27-3.9-5-.59l-3.16.2s-2.27,6.07-10.87.39c0,0-1.78-4.3-4.89-2.72s-6.37,2.92-6.37,2.92-3.26,1.48-4.6-.64-.54-2.37-2.57-2.52-5.08.69-5,2.62-5,3.85-7.61,3.26a31.19,31.19,0,0,0-5.83-.6s-2-2.81-5.39.05c0,0-.69.64-2-1.18a6.66,6.66,0,0,0-4,.89c-1.29.95-2.37-.65-2.68-1.18a.21.21,0,0,0-.26-.09l-6,2.22s-.21.86-2.09.85c0,0,1,3.28-1.65,3.23s-3,.54-6.32-3.23c0,0-.91.44-.91.61v2.28a6.4,6.4,0,0,1-2.9.62c-1-.23-1,.86-1.14.91s-4.15-4.67-10.16-4.44a7.83,7.83,0,0,1-7.17-4.3c-4.2-8.06-12.6-23-20.22-28.76C466.7,364.86,435.53,340.09,445.16,326Z"
              transform="translate(-6.91 -5.29)"/>
    </g>
    <g id="Lokh'Tar">
        <path class="cls-1" d="M504.4,403.18" transform="translate(-6.91 -5.29)"/>
        <path class="cls-1"
              d="M508.45,401.64v-2.28c0-.17.91-.61.91-.61,3.3,3.78,3.7,3.18,6.32,3.23s1.65-3.23,1.65-3.23c1.88,0,2.09-.85,2.09-.85l6-2.22a.21.21,0,0,1,.26.1c.31.52,1.39,2.13,2.68,1.17a6.7,6.7,0,0,1,4-.89c1.29,1.83,2,1.19,2,1.19,3.36-2.87,5.38-.05,5.38-.05a31.63,31.63,0,0,1,5.83.59c2.67.59,7.66-1.33,7.61-3.26s3-2.77,5-2.62,1.24.4,2.57,2.52,4.59.64,4.59.64,3.27-1.33,6.38-2.91,4.89,2.72,4.89,2.72c8.6,5.68,10.87-.4,10.87-.4l3.16-.2c2.72-3.31,5,.6,5,.6l1.63-1.17a.15.15,0,0,1,.19,0l1.39,1.16,3.36-.25a4.65,4.65,0,0,1,5.72-1.07l0,.28c-.51,1.92,13,8.42,13,8.42s13.63-.58,27.27,9.48c0,0,21.18-4.06,36,9.87,0,0,4.16-1.26,10.84,8,0,0,1.54,2.61,14.12,4.45,0,0,4.66,1.6,9,9.12a1,1,0,0,1-.72,1.48l-.89.12c-.26,1.15-1.16,5.81-1.16,5.81l-4,.42-3.06-2.85-2.69.69,2.11,5.33c3.22,1.21,2.32,4.17,1.69,7.38-.46,2.3-3.72,4.22-5.56,5.13a.92.92,0,0,1-1.24-.52c-.53-1.18-2.86-1.28-2.86-1.28-.37-5.17-2.11-5.38-2.11-5.38-5.22,2.48-7,2.27-7,2.27-1.32,6.86-4.48,7.59-4.48,7.59,1.69,2.17,1.11,6.71,1.11,6.71-4.65-.74-12,1.68-12,1.68-.69-1.47-2-3.64-2-3.64s-3.74,1.32-5,1.9-3,4.59-3.32,4.59-8,.32-8,.32-4.33,1.43-4.49,1.43-6.12-1.85-6.49-1.85-2-.27-2-.27-4,2.59-4.17,2.64a32.34,32.34,0,0,1-2.75-2.74l-8.22,1.73c.18,2.68-3.7,6.94-3.7,6.94-10.27.74-6.85-1.67-9.16-3.24s-7.22-.56-7.22-.56c-15.35,2.5-13.78,1.58-15,1.21s-.28-1.76-.47-3.52-7-.65-8.79-.46-.37,2.22-.92,3.24-4.26.37-4.26.37-4,2.24-11.61,1.58-12.56,2.08-7.37-3.31-.09-4.53-.09-4.53-3.88-.1-.66-2.18c2.95-1.9,6.45-2.3,5.91-5.65a3.29,3.29,0,0,1,.19-1.78,2.28,2.28,0,0,0,.13-1.79,2.47,2.47,0,0,1-.14-1.61c.17-.72-.26-1.76-3.07-2.77-5-1.79-2.27-3-.28-3.4s5.38-.66,5.85-2.83c0,0,1.14-5.95-3.78-6.24a130.35,130.35,0,0,1-15-2.36s-4.35-.56-5.48-3.11-3.3-6.11-.66-15.81c1.38-5-16.28-19.7-22.38-19.8s-12.77-8.69-12.77-8.69"
              transform="translate(-6.91 -5.29)"/>
        <path class="cls-1"
              d="M686.05,485.5c0-.16.26-2.32.26-2.32l1.64-1.74s5,.63,5.85-2.48a12.17,12.17,0,0,0,4.22,1l.53,4.53s-8,1.43-9.65,2.75Z"
              transform="translate(-6.91 -5.29)"/>
        <path class="cls-1" d="M695.28,497.21c0-.16,2.32-2,.63-3.32a5.36,5.36,0,0,0,3.86,1.16v2.16l-2.25-.42-.82,1.53Z"
              transform="translate(-6.91 -5.29)"/>
        <polygon class="cls-1" points="701.82 463.69 702.56 465.59 705.3 465.59 705.3 463.21 703.04 462 701.82 463.69"/>
        <path class="cls-1"
              d="M717.44,460.54l1.59,3.53,2.69.43,1.63-2L721.51,461l.42-2.95-2.15-.93a.73.73,0,0,0-1,.67v1.58Z"
              transform="translate(-6.91 -5.29)"/>
        <path class="cls-1"
              d="M727.63,464.32v.92l3.16-.43V463a.62.62,0,0,0-.92-.54l-1.66.91A1.13,1.13,0,0,0,727.63,464.32Z"
              transform="translate(-6.91 -5.29)"/>
    </g>
    <g id="Lothradin">
        <path class="cls-1"
              d="M504.4,444.49c.76.93,9.26-.55,9.26-.55s3.58-.64,1.3,1.53,8.79,2.06,8.79,2.06,10.18-2.91,15.38-.88a6.48,6.48,0,0,0,1.28.38c1.77.28,5.66,2.11,1.87-2.6a2.73,2.73,0,0,1-.56-1.19c-.43-2.08-1.45-8.78.71-13.8,0,0,.3-6.25-15-15.73,0,0-4.94-2.68-7.83-2.47s-12.29-9.2-12.29-9.2l-2,.32-.88.82s-5-5.92-10.16-4.44c-4.32,1.24-10-7.07-10.18-9,0,0-5-3-5.77.28s1.31,7.07-5.35,15.45-.83,7.55-1.17,7.55,13.67-1.3,11.67.48-5.9,5.63-3.91,5.91,13.18-.07,11.33,1.44,3.25,9.78,8.39,11.88a2.14,2.14,0,0,1,1.33,1.52C501.11,436.66,502.46,442.13,504.4,444.49Z"
              transform="translate(-6.91 -5.29)"/>
    </g>
    <g id="Wildlands">
        <path class="cls-1"
              d="M464.45,411.15c.61-.31,4.18-.31,4.25-.54a14.79,14.79,0,0,1,2.36-4.25c1.36-1.52,4.78-6.16,5.54-8.89s.65-7,1.06-8.27c.61-1.82,3.12-1.52,4.41-1.21l1.29.49-2.81-4.06s-7.21-13.67-14.81-18.91c0,0-29.48-24.83-22.22-38.57,0,0-23.29,5.89-24.6-17.73l-30.13-6.85s-6.85,1-26.14-15.14a6.35,6.35,0,0,0-4-1.5L355.42,283s-2.32-9.25,5.69-6.51c0,0,1.25.24,1.49-1.83,0,0-3.37-4.53.82-7a45.84,45.84,0,0,0,0-5.11,4.75,4.75,0,0,1-1.2,0l-4.15,1.16-.82-1.93h-7.09s-.19-6.75-2.22-8.2-13.5,1.21-13.5,1.21-.72-3.48-1.78-3.48-4.63.68-6,.49-5.5-1.86-6.46-1.62l-.24-4.46s-2.61-1.06-3.09-5.79l2.27-2.12.29-6.07-2.32-2-2.75,2.41-7.18-2s-4,.73-4.25,1.59a14.86,14.86,0,0,0,0,3.33l-5.35,1.35-1.49,5.4-.29,4s5.06,4.43,5.16,5.59-1.4,4.44-1.4,4.44-1.16,1.59,0,2.31,5.74,3,5.74,3,1.78.63,3.18,3.91,3.42,7.33,4.34,8,7.14,2.7,7.67,2.27c0,0,5.69,4,5.54,5.4s-3.28,4.24-3.95,4-2-.63-.77.77a9.85,9.85,0,0,1,1.73,3.33,35.21,35.21,0,0,0,2.08,10.08s3,1,4.82,1.73,2.12,7,2.46,7.38a40.94,40.94,0,0,1,1.78,3.81l2.32,3.09s3.61,1.15,4.1.91,1.44-3,1.44-3a16.79,16.79,0,0,0,6-3.08s2-.77,5.74,1.16l1.73-1.44,6.47-.35s7.47,6.75,7.61,6.75,3.28-1.11,3.38-1.44,3.95,1.63,4.44,2.6c0,0-.82,2.89,1.64,1.88s3.56.63,3.27,2.31a10.38,10.38,0,0,0-.19,2.51L376.44,328s-1.83,1.4-.72,3.09,2.26,3.86,2,4.87-3.77,3.33-1.31,9l-1.11,5.49s1.26,1.79-2.36,4.63l-3.95.1a2.35,2.35,0,0,0-1.5,1.69c-.14,1.2-2.65,2.31-2.65,2.31s-1.88,1.06,0,1.84a3,3,0,0,1,1.25,3.18c-.33,2.31.2,3.9,2,1.4l2.36,1.83,4.54,0-2.75,3.08L366,372.76v2s-6.61-1.5-7.72-1.3-3,.38-2.55,2.55-.63,2.56-2.22,2.56-2.07-.2-2.65,1.49-1.69.68-2.46-.34-2.12-2-2.17.2a8.59,8.59,0,0,1,.33,1c0,.14-1.2.1-1.3.39s.92,1.92.92,1.92l-.72,1s-2.8.58-.34,2-1.4,2-1.4,2-4.53,1.2-.48,2.65c0,0,3.13,2.56,3.37,3.81,0,0-2.7,1.55-1,3.19s2,.34,2.12,0,1.11-.78,2.07,1l2.85.77s.05-4.63,3.81-3.28l2.94,1.3s1.93,1.83,3.57-.92,1.25-3.71,3.08-3.37l1.35-1.25,2.27,1.78-.58,1.93.68.72-1.26,1.64,1.16,1.45s.82,2.41,2.75.48c0,0,4.44-.72,2.94,2,0,0-1.25.68.39,1.73s2.91,2.1,3.32.35a2.4,2.4,0,0,0,2.32-.83,7.92,7.92,0,0,0,.34-2.6s1.06-1.89,1.83-1.35a4.58,4.58,0,0,0,1.69.67s3.23,0,3.13,1.54-.77,1.55-.77,1.55-1.69,1,.05,2.21,2.26.25,2.31-.77,2.22,0,2,1.11a7.17,7.17,0,0,1-1.25,2.37s1.1,2.46.91,3a4.24,4.24,0,0,1-1.11,1.25,2.12,2.12,0,0,0-1.64,2c0,1.59,1.64,2.31,1.93,1.06l.87,0,1.11-1.1,2.27.62s2.12,1.79,1.15,3.43c0,0-3.23.38-.72,1.73l.43.95H397l.44,1s.73,2.25,1.91-.44c0,0,2.83-.83,3,.19s-.83,3.43,1.22,1.47c0,0,3.13.2,1.76,1.76,0,0,.15,5.58,2.84,2.15,0,0,2.44-1.27,2.54,4.55,0,0-.39,2-4.55.88,0,0-2.1-3.72-3.52-.64a7.68,7.68,0,0,1-2.05.2c-.34-.15-.88-3.52-4.11.05,0,0-.93.73-2.59-.49s-2.49,2-1.22,2.4,1.22,2.15-.69,2.59-2-.2-2-.2-2.06-.39-.4,1.52-.53,2.1-1.31,1.81a8.17,8.17,0,0,0-2.55-.15l-.44-.88s-3.91-1.66-1.71.63-1.51,2.65-1.51,2.65-4.11-1.23-3.38,1.41-3.47.54,1.62,3.82c0,0,.19,3.27,2.34,2.49,0,0,1.42,3.52.44,4.94,0,0,3.82,3.62,2.4,5.23,0,0,5.43,1.27,4.4,2.59s-4,3-.3,4.26c0,0,1.77,1.9-1.61,3.47,0,0-1.59,4.61,3.62,3.57.25-.05,3.72-1.32,3.72-1.32s2.1-3.38,2.69-2.89c0,0,1.81-2.59,3.76.73s2.69-1.71,2.69-1.71.64-1.76,2,2.35c1.09,3.29,1.94.87,2.23-.22a.26.26,0,0,1,.44-.11l2.26,2.48s-1.32,3.28-.05,2.59,4.94,2.5,4.94,2.5,1.47-2.59,1.81-1.27.93,3,.49,3.76c0,0,1.71,1.81.25,3.18,0,0,1.17,5.28,5.23-.69,0,0,.58-.63,1.37,1.13s2.93-1.17,2.93-1.17a4.3,4.3,0,0,1,.68,2.34c-.08.6,2.12-1,2.77-1.79a.13.13,0,0,1,.23,0c.23.6,1.21,1.83,5.46.58,0,0,1.62-.1,1.08-2.1s2.49-1.32,2.49-1.32,6.82-6.36,9.1-6.36c.19,0-1.13-3.47,1.46-4.94s-2.88-3.47-2.88-3.47-2-2.2-.1-2.35,3.37-2.44-3.32-6.35c0,0,.83-2.35-2.4-3.08s2.3-5.53,3.77-4.45,2.88,1,.88-2.11,2.24-.92,2.24-.92a3.64,3.64,0,0,0,.79-3.57s4.1-.83-1-2.55a3.64,3.64,0,0,1,.67-3.28.1.1,0,0,0-.07-.17c-1.16.05-6.11,0-3.29-4.81,0,0,1.37-.15-.1-2.15s2.15-3.77,2.4-3,2.64,1.27,1-1.66c0,0-.63-.49.59-1.47s-1.81-2.25-2.49-1.91-2.45-2.46-.69-4.38,3-3.64,3.91-.65a3.52,3.52,0,0,0,5.14,2.2c1.12-.84,2.1-2.5.59-4.06,0,0-.54-2.59,2.78-.1,0,0,1.81.39,1.76-1.76S464.45,411.15,464.45,411.15Z"
              transform="translate(-6.91 -5.29)"/>
        <path class="cls-1"
              d="M357.56,408.49a.77.77,0,0,0-.38,1.13c.59.91,1.43,2.26,1.43,2.26l.62-2.18,1.84-.48v2.66s1.29,3.82,1.7-1.09c0,0,.75,2,2.12,1.16s1.5-1.57,1.43-2.11,2-1.91,0-2.32c0,0-2.26.48-2.13-1.36s-1.22-6.48-2.93-2.66c0,0-.41,2.59-.47,3.27C360.75,407.24,358.77,408,357.56,408.49Z"
              transform="translate(-6.91 -5.29)"/>
        <path class="cls-1"
              d="M369.78,413.3s-.54,2.24,2.87,2l-.63,3.32h1.62s1.61-3,5.92,0c0,0,1.25.81,2.33-2.24,0,0,2-2,3.67-1.62s.54-1.43.54-1.43,2-2.24-3.41-1.44-5.2-1.34-5.2-1.34-1.07-2.42-2.51-.36l-2.24.63.45,1.61Z"
              transform="translate(-6.91 -5.29)"/>
        <path class="cls-1"
              d="M387.09,428.32v1.93h2.15l1.35-.63-.65-1.54a1.17,1.17,0,0,0-1.32-.68l-1,.21A.73.73,0,0,0,387.09,428.32Z"
              transform="translate(-6.91 -5.29)"/>
        <path class="cls-1" d="M355.16,422.53a4.62,4.62,0,0,0,2.26.49c.27,0,.52.64.52.92v1.64l-2.33-.8-1.49.8v-.73Z"
              transform="translate(-6.91 -5.29)"/>
        <path class="cls-1"
              d="M362.48,432.28s-1.72-3.79,2.12-2.43c0,0,2.23,1.27,2.23-2.48,0,0,2.68-2,2.53,0,0,0-1,2.08,3.29.71,0,0,3.24,2.28,2.33,3.24a3,3,0,0,1-2.48.66s-2-.41-1.87,1.52-.51,2.58-2.33.66-2.43-2-3-.56-1.67,1.57-2.27,0Z"
              transform="translate(-6.91 -5.29)"/>
        <path class="cls-1"
              d="M333.73,432.18a1.52,1.52,0,0,1-2.13-1.29c-.25-1.95-.61-2.15,1.06-1.85s2-.75,1.57-1.67,0-1.52,1.67-1.52,2.54.62,2.43,1.52,3.95-.6,3.95-.6l2.63-1.19s1.27-3.77,2.64-.28-1.57,2.75-1.57,2.75-.81-.27-1,1.55-2.54.41-2.54.41l-4.2.88a1.9,1.9,0,0,0,.61,2.2c1.17.86,2.68,1,.76,1.72a9.11,9.11,0,0,1-4.4.26c-.16,0-1.67-.71-1-1.32S335,431.83,333.73,432.18Z"
              transform="translate(-6.91 -5.29)"/>
        <path class="cls-1"
              d="M254.51,397.47c-.27,0-2.43,1.48-2.63-1.69s1.89-2.5,1.89-2.5l2.56-1.22,1.76,1.35,2.16-.27.47.48-1.42,1.32-1.48,1.24-.14.95-.74.81Z"
              transform="translate(-6.91 -5.29)"/>
        <path class="cls-1" d="M265,367.36s.07,3.85,2,2.64,3.45-.48,2.43-1.76-1.62-1.48-1.62-1.48l-1.21.4Z"
              transform="translate(-6.91 -5.29)"/>
        <path class="cls-1"
              d="M286.77,389.7a21.68,21.68,0,0,1,.27-2.43s1.62-.54,2-1.21.81-3.44,2.36-2.16,1.82,2.16,1.82,3.24.42,2.7-1.14,2.56l-1.56-.13-1,.94Z"
              transform="translate(-6.91 -5.29)"/>
        <path class="cls-1"
              d="M263,389.3c.33-.34,1.21-5.27,5.06-3.65,0,0,2.77.75,3,0s.34-2.62,2.56-2.15,3-1,5.2,2.29a2.47,2.47,0,0,0,2.9,2.16c2.57-.41,2,1.48,1.76,3s.2,3.23,2.7,2.49,2.49,3,2.49,3,.54,2-1.28,2a2.93,2.93,0,0,0-2.56,1.62s-1.29-2.3-3-.81L275,401.78s-2.16-.67-3.24,0c0,0-1.69-4.18-3.58-2.36s-1.75.61-2.16-.34-2.63-2-3-1.61,1.08-3,1.08-3l2.29-2.43s2.63-3.17-.88-2.49S263,389.3,263,389.3Z"
              transform="translate(-6.91 -5.29)"/>
        <path class="cls-1"
              d="M327.85,236.79s-2.6,1.12-1.73-2c0,0-.17-.77,1.3-1.12a2.11,2.11,0,0,0,1.17-.6.4.4,0,0,1,.62,0c.54.75,1.37,2.11,1.07,2.83C329.84,237,327.85,236.79,327.85,236.79Z"
              transform="translate(-6.91 -5.29)"/>
        <path class="cls-1"
              d="M313.78,221.81s-1.45,1.06-.84-1.56.45-1.84,1.56-1.95,5-1.12,5.47-1.17,1.5.77,1.56,2.44S321,222,320,222.37a35.67,35.67,0,0,1-3.57.78s-1.89,1.17-1.95-.78S313.78,221.81,313.78,221.81Z"
              transform="translate(-6.91 -5.29)"/>
        <path class="cls-1"
              d="M331.18,215.23a14.75,14.75,0,0,1,2.17-1s2.18.22,1.12-1.06-1.28-2.63-2-2.18-1.39.45-1.28.11-.95-.56-1.17.45-.73,1.73-.34,1.95A11.59,11.59,0,0,1,331.18,215.23Z"
              transform="translate(-6.91 -5.29)"/>
        <path class="cls-1"
              d="M162,295.11c.15,0,4.51,1.82,4.51,1.82s2.23,1.3,2.64-.78,3.69-1.19,3.58-1.24,5.35-.06,5.76-1.87,1.14-3.89,1.09-4.1-.36-3.26-2.59-2.23-1.61-.21-1.61-.21-1.4-1.71-2.75-.77-2.39-1.66-2.39-1.66-3-2.6-.93-3.53a9.19,9.19,0,0,0,3.48-3.27s3.26-3.52,6.37.42c0,0-.51,2.7,2,.1,0,0,.52-.88,3.27-.52,0,0,2.28-.67,2.34-1.45s.83-2.75-.63-3.37-1.92-1.24-2-2.13,1.25-1.5-1.09-1.66c0,0-7.67-6.37-7.15-9.75s.51-3.26-.89-3.89a31.39,31.39,0,0,1-5.6-3.11h-1.76s-2-2.17-1.4-7.36a3.89,3.89,0,0,1-3.11-2.39s-7.37,7.06-8.15,7.21a3,3,0,0,1-2.23-.83,41.15,41.15,0,0,0-3.88-2.75s-2.08.37-1.56-2a10.86,10.86,0,0,0,.26-3.84,1.45,1.45,0,0,0-1.3-1.92,2.48,2.48,0,0,1-2.23-3.26l.42-3.11s1.6-2-1.56-3.27-4.1-1.56-4.1-1.56-3.06-2.18-2.28,1.3c0,0-.83,3.42-1.5,3.89a55.91,55.91,0,0,1-2.18,7.41s3.94,2.55,1.5,7.78l-1.29.47s-2.18-1.4-1.4,1.61.62,3.37.62,3.37,1.56.62-1,1.92-2,.62-2.07,2.7l-.78,2.48s2.49,4.78,2.33,6.33c0,0,1.92,2.54.21,4.41,0,0-1.4.36-.62,2.9l.36,2.55s-1.09,2.64,2.85,1.76c0,0,5.35-.16,5.4,0s5.86,1.92,5.86,1.92a3.4,3.4,0,0,0-.31.72c0,.16,7.83,1.61,7.83,1.61s1.4.52,1.66,1.61a3.08,3.08,0,0,0,1.29,1.71,2.42,2.42,0,0,1-.26,3.16s-1.14,4.77,2,3.12,3.31,2.17,2.64,2.28S162,295.11,162,295.11Z"
              transform="translate(-6.91 -5.29)"/>
        <path class="cls-1"
              d="M121,229.41s1.4,5.08,2.49,4.35,1.24-2.31,1.86-2.14,1-.92,1.14-1.75,1.51-2.23,0-2.38-2.69-1.14-3,.41-.68,2-1.25,1.76A3.73,3.73,0,0,0,121,229.41Z"
              transform="translate(-6.91 -5.29)"/>
        <path class="cls-1"
              d="M149.79,231.89a6.49,6.49,0,0,1,.73-1.14h.72s-.05-1.81,0-1.66a14.61,14.61,0,0,0,2.6.21l.77,2-1.6,1.3Z"
              transform="translate(-6.91 -5.29)"/>
        <path class="cls-1"
              d="M146.78,221.73s.88,2.39,2.7-.36c0,0,.83-.94,3.16-.57s1.61-1.14,1.51-1.92.93-2-1.46-2.39-1.71-2.23-1.71-2.23a1.88,1.88,0,0,0-1.81-1.45c-1.45.05-2.13-1.5-2.13.67s-1.24,2.23-1.24,2.23a1.63,1.63,0,0,0-1.09,2.18s-.47,2.13.72,2.8S146.78,221.73,146.78,221.73Z"
              transform="translate(-6.91 -5.29)"/>
        <path class="cls-1"
              d="M115,221.21c.16.11,2.08,1.66,3,0,0,0-.36-.93,1.87-.83s2.38-.93,2.38-1.87.52-2.8,1-3.11,1.45-2.18-.83-2.18L118,211.57s-2.23-1.71-2.18.75S114,215,114,215s-1.09-.11-1,1.92-.36,3,.67,3.42A4.37,4.37,0,0,1,115,221.21Z"
              transform="translate(-6.91 -5.29)"/>
        <polygon class="cls-1"
                 points="113.73 189.94 114.72 191.7 117.19 191.7 117.47 189.63 116.17 187.24 113.73 188.12 113.73 189.94"/>
        <path class="cls-1"
              d="M127.49,208.61s-.36-2.54,1.14-2.54.26-3.06.26-3.06-1.09-2.91.05-3.48,4.51-4.35,4.51-4.35L137.6,197l.21,4.46s1.25.68,1.66.44,2.13-.28,1.92,1.69.93,3.89-1.14,3.78-1.82-.15-2.23,1a5.41,5.41,0,0,1-1.09,1.81l-.05,2.16s.72,2.1-.73,1.42-1,4-1,4-1.51,1.4-1.82,1c0,0-3-.95-2.64-2.24s.88-2.22,0-2.94-2-1.77-2-1.77l-1.34-2.23Z"
              transform="translate(-6.91 -5.29)"/>
    </g>
    <g id="Biglewater">
        <path class="cls-1"
              d="M774.58,508.12c.31-.95.79-1.73,1.47-1.58s.94.38,1.41,0a8.7,8.7,0,0,1,1.84-.87s1.73,1,.62,1.94a2.08,2.08,0,0,1-2.09.53s-.05,1.46-.94,1.15A16.64,16.64,0,0,1,774.58,508.12Z"
              transform="translate(-6.91 -5.29)"/>
        <path class="cls-1"
              d="M775.37,501.51c.1-1.1.26-2.46,1.25-2.46s2.47,1.31,2.83-.1,3.2-6.13,4.4-6.08-.89-2.88,1.26-1.73,3,1.52,3.41.1.21-3,1.57-1.94c0,0,2-.41,2.1,1s0,2.2,0,2.2,1.36.79.36,1.42-3-.26-3.56,1.31-.84,2.56,0,2.93,1.73,1.68.26,1.78a37.53,37.53,0,0,0-4.71,1h-3.25s-.94,1.52-1.31,1.52h-4.09Z"
              transform="translate(-6.91 -5.29)"/>
        <path class="cls-1"
              d="M796.33,493.71c.26.52.42,2,.83,2s2.21-.26,2.1-1,0-3.3-.73-2.83A22.79,22.79,0,0,0,796.33,493.71Z"
              transform="translate(-6.91 -5.29)"/>
        <path class="cls-1" d="M781,483.65h2s1.57,1,.52,1.46-2.31.63-2.57.21S781,483.65,781,483.65Z"
              transform="translate(-6.91 -5.29)"/>
        <path class="cls-1"
              d="M884,625.41a2.23,2.23,0,0,1,1.33-1.33s1.82.42,1.88,1.45-1.45,1-2.18.79A1.84,1.84,0,0,1,884,625.41Z"
              transform="translate(-6.91 -5.29)"/>
        <path class="cls-1"
              d="M900.7,614.08c.71-.36.6-2.07,1.39-1.34s3.15.49,2.67,1.64-1,2.3-2,1.88S900.21,614.32,900.7,614.08Z"
              transform="translate(-6.91 -5.29)"/>
        <path class="cls-1"
              d="M888.45,617.59s2.79-4.48,5-4.3,4,.33,3.94,1.17-.31,2.46-.73,2.71,1.63,2.6,1.57,3-2.66,1.45-3.09,1a2.58,2.58,0,0,0-1.39-.61s-2.12,2.73-2.61,1.88l-1-1.82s-3,1.34-2.48.37a12.26,12.26,0,0,0,.78-2.31Z"
              transform="translate(-6.91 -5.29)"/>
        <path class="cls-1"
              d="M890,554.25c-.11.15-.91-1.64,0-1.82s2.18,0,1.94-1.21-1.09-1.82,0-1.94,1.85-.18,2-.91,1,1.15,1.64,1.76,2.73,2.61,1.63,2.67-1.51-.13-1.69.48-.67.61-1.52.67S890.21,554,890,554.25Z"
              transform="translate(-6.91 -5.29)"/>
        <path class="cls-1"
              d="M923.06,542c-.17-.59.79-2.61,1.46-2.43a1.56,1.56,0,0,0,1.82-.85c.18-.66.91-1.45,1-.36s1.94,1.7,1,2.48a2.12,2.12,0,0,1-1.82.55,1.78,1.78,0,0,0-.72,1.45C925.91,543.7,923.73,544.13,923.06,542Z"
              transform="translate(-6.91 -5.29)"/>
        <path class="cls-1"
              d="M899.61,540.13c0,.4,6.06-1.88,8.91,1.88,0,0,4.85-1.44,4.3-2.42s-4.24-4.19,0-5c0,0-1.39-5.51-.36-5.88s9.57-5.45,7.76,4.37c0,0,3.27-.73,3.81,1,0,0,2.67-2,2.61-2.31s-.12-1.27-.12-1.27l1.21-1.33-1.88-2.79.79-2.06,3.64.18.36-2.24s-4.92-3.76-4.79-4.49.31-4.06-.42-4-3.88-1.82-4.24-.85-.37,2.31-1.34,2.61-6.85,2.48-6.85,2.48-1.39-4-1.94-3.82-4.18-.84-4.12.13-.06,4-.06,4-5.88,1.57-6.18,1.51-3.88-3.94-4.37-3.45-2.42,3.75-2.42,3.75a7.6,7.6,0,0,1-.49,8s-.3,4.12.19,4.48,3.39,1.4,3.69,1.76A9,9,0,0,1,899.61,540.13Z"
              transform="translate(-6.91 -5.29)"/>
        <path class="cls-1"
              d="M900.27,506.31c-.1.45-.12,3,.31,3a.91.91,0,0,1,1.07.8c.15,1,.5,1.83,1.17,1s1.57-.76,1.21-1.78.16-2.13-.81-2.13S900.33,506.06,900.27,506.31Z"
              transform="translate(-6.91 -5.29)"/>
        <path class="cls-1"
              d="M904.39,495.66c.29-.82-.36-1.47.25-1.37s3-.66,3.15.25,1.43,2.24.76,2.64a5.76,5.76,0,0,1-1.82.76c-.51.11-.87-.81-.87-.81S904.14,496.37,904.39,495.66Z"
              transform="translate(-6.91 -5.29)"/>
        <path class="cls-1"
              d="M911.35,502.72c-.15-.05-.56,1.57,2,3.15l.36,1.32s-1.32,1.78.76,1.42,4.06-.86,4.06-.86l2.19-2.9s1.87-3.76,1-3.6a9.39,9.39,0,0,1-5.49-.66,18.36,18.36,0,0,1-2,1.47A8,8,0,0,1,911.35,502.72Z"
              transform="translate(-6.91 -5.29)"/>
        <path class="cls-1" d="M996.51,547.52c.22-.22,1.7-2,1.7-2s.68-1.2.85.05,1.48,2.16,0,2.73-2.55,1.3-2.55.51Z"
              transform="translate(-6.91 -5.29)"/>
        <path class="cls-1"
              d="M993.61,556c-.15.64-.51,4.54.29,4s2-1.3,2.1-.39,2.21.74,1.41,1.7-2.78,1.13-1.24,1.65,3.51,1.3,4.2,1.07,1.24-2.55,2.44-1.76,2.78.86,2.66-.51a2.94,2.94,0,0,0-1.08-2.55c-1-1-3.63-2.61-2.09-2.95s3,.51,2.55-1.31.06-2.1-1.7-1.81-2.27-2.16-2.67-1.93-.91-.29-1.53,1.08-.91,2-1.25,2.72-.23,2.33-1.42,2S993.69,555.72,993.61,556Z"
              transform="translate(-6.91 -5.29)"/>
        <path class="cls-1"
              d="M1043.89,496.33c.62-.87,7.21-9.47,7.21-9.47l-.45-.85s-3.41,1.87-4.2,1.47-.46-3.46-1.31-3.86-.45-2-1.25-1.19-.62,2-2.1,2.27-5.33,2.27-4.82,3.07c0,0,.11.45,2.27.62s1.87,4.26.23,6.24,1.64.8,2.15.8S1043.58,496.79,1043.89,496.33Z"
              transform="translate(-6.91 -5.29)"/>
        <path class="cls-1"
              d="M1047.13,479.37a16.06,16.06,0,0,1-.51-3.92s3.69,2.84,3.86,3.35-2.67,1.42-2.9,1.3S1047.13,479.37,1047.13,479.37Z"
              transform="translate(-6.91 -5.29)"/>
        <path class="cls-1"
              d="M1045.54,498.72c.28-.29,12.14-16.91,12.14-16.91s.67,5.62-.59,8.45c-.06.14-.13.27-.2.4-1.53,2.67,3.86-1.45,4-1.35s.51.55.45,1.75,4.26.22,5.17.45,1.7.11-1,5.45-3,2.89-3.4,2-2.39-.85-3,0a1.41,1.41,0,0,1-2.16.17c-.57-.51-4.14-.74-4.54-.23s-.06,1.76,0,2.56.91,2.1-.85,1.47-1.42-1.41-2.84-.85-3.18,1-2.5-.91-.45-1.41-.79-1.7S1045.54,498.72,1045.54,498.72Z"
              transform="translate(-6.91 -5.29)"/>
        <path class="cls-1"
              d="M967.69,428.08c0,.57-.53,1.7.49,1.81a13.62,13.62,0,0,0,3.45-.62s.9-.45.34-1.76-1.69-2.14-2.12-2-.31.33-.43.9S967.69,428.08,967.69,428.08Z"
              transform="translate(-6.91 -5.29)"/>
        <path class="cls-1" d="M999.62,414.28c-.06-.6,3.4-2.77,3.57-1.7s.22,2.61.22,2.61S999.85,416.32,999.62,414.28Z"
              transform="translate(-6.91 -5.29)"/>
        <path class="cls-1"
              d="M977.45,431.81a17.56,17.56,0,0,1,3.11-.05l1.19.79,1.19-.74h1.64l-.68-1.3-1.92-.17,1-1.07-.57-2.94,3.11-.4.74-3.22L991,422l2.6,3.11-.62,2.57s-4.58,1.81.62,2.19h1.24s-.34,3.38-.34,3.55-8.14,2.83-12.21,2.66c0,0-2.6-1.07-2.77-2.2C979.55,433.91,977.14,431.89,977.45,431.81Z"
              transform="translate(-6.91 -5.29)"/>
    </g>
    <g id="Shadow Islands">
        <path class="cls-1"
              d="M1003,670.89c-.21.53-1.27,5.1,0,5.53s5.64.53,6.27-.11,1-2.52-.63-2.48-2.87.81-3.4,0S1003,670.89,1003,670.89Z"
              transform="translate(-6.91 -5.29)"/>
        <path class="cls-1"
              d="M1036.68,652.5s-1,4.34-.61,5.13,2,.92,2,.92l2.5.67.61-1.53s-.54-1.58-1.15-1.58S1036.68,652.5,1036.68,652.5Z"
              transform="translate(-6.91 -5.29)"/>
        <path class="cls-1"
              d="M1056.45,685.65c.13-.61.8-3.36,1.53-3.54a5.93,5.93,0,0,0,1.47-.67l2-5.62v7.57s-1.53,2.93-1.77,3.54S1056.45,685.65,1056.45,685.65Z"
              transform="translate(-6.91 -5.29)"/>
        <path class="cls-1"
              d="M1010.8,680.82c-.22.58,1.53,5.62,1.59,6.47s1.89,3.3,4,1.35c0,0,1.59-3.66,2.87-3.12a1.54,1.54,0,0,1,.92,1.84s-2.56,2.25-2,4.39l1.65,1.4s3.73.68,4.58,0,3.48-4.33,4.27-2.8a6.63,6.63,0,0,1,.8,2.8l-.92,1.65-.06,4.27s5.74.19,6.41-.73,4.45-5,6.59-3.05,4-1.95,4-1.95,5.19-.13,5.06.55,1.22.24.49-2.45-4.21-6-4.94-6-2.56,2.08-2.69.37a16.39,16.39,0,0,0-.3-2.44l1.77-2s3.29,1.41,3.17,0,1-5.25-.3-4.67-4.15,2.17-4.58,1.81-.43-9.1-1-9.34-2.62.18-2.62-.8.67-4.51-.37-4-5.49.73-5.55,1.52,1,2.87-1.22,5.56-5.68,2.62-5.86,1.58.18-3.41-3.73-3.66l-.18,7.69s-5.55,4.82-5.8,4.95-.73.54-1.28-.62-.85-1.95-1.46-1.64S1011.11,680,1010.8,680.82Z"
              transform="translate(-6.91 -5.29)"/>
    </g>
    <g id="Icelands">
        <path class="cls-1" d="M917.51,37.26c-.07.52-.52,3.11,0,3.26s2.37.59,2.37.59l.3-3.85Z"
              transform="translate(-6.91 -5.29)"/>
        <path class="cls-1" d="M934.63,44c.15-.44.89-3.19,1.48-1.85a12.56,12.56,0,0,0,2.75,3.11l-1.41,2-2.08-.67V45.33Z"
              transform="translate(-6.91 -5.29)"/>
        <path class="cls-1"
              d="M937.6,36.44a22.88,22.88,0,0,0,2.07,3.71c.3.22,3.93-1,3.93-1s.89-2.81,0-3.11a6.63,6.63,0,0,0-2.52,0l-1.78-1.26Z"
              transform="translate(-6.91 -5.29)"/>
        <path class="cls-1" d="M948.86,32.44c.15,1,2.37,2.37,2.37,2.37s1.48-2.07.89-2.89S948.86,32.44,948.86,32.44Z"
              transform="translate(-6.91 -5.29)"/>
        <path class="cls-1"
              d="M954.2,41.11c-.3,1,.51,4.08,1.48,4.74s3.11,1.41,3,0,.07-4.13-.67-4.06A26.65,26.65,0,0,1,954.2,41.11Z"
              transform="translate(-6.91 -5.29)"/>
        <path class="cls-1" d="M978.58,41.79a27.22,27.22,0,0,0-.82,3.84h2.45l1.11-3.41Z"
              transform="translate(-6.91 -5.29)"/>
        <path class="cls-1" d="M972.8,74.24c.07-.23,1.48-.89,1.48-.89l1,.89v1.48h-2.15Z"
              transform="translate(-6.91 -5.29)"/>
        <path class="cls-1"
              d="M938.11,79.35c0,.52.08,2.52.08,2.52s4,.82,3.63,0-.94-2.89-1-2.89S938.11,79.35,938.11,79.35Z"
              transform="translate(-6.91 -5.29)"/>
        <path class="cls-1"
              d="M920.85,60.53a21.67,21.67,0,0,0,0,2.29s1.18,2.23,1.78,2.23,2.44-1.63,2.44-1.63l-2.13-3.26Z"
              transform="translate(-6.91 -5.29)"/>
        <polygon class="cls-1" points="919.57 45.75 922.23 43.6 924.16 43.6 924.16 47.9 919.57 45.75"/>
        <path class="cls-1" d="M926.48,56.82c-.22.22.67,2.74.67,2.74l1-.81,2.67,1.78V56.82Z"
              transform="translate(-6.91 -5.29)"/>
        <path class="cls-1" d="M931.07,66.08a19.45,19.45,0,0,1,1.34-1.77l2.22-1.71,1,1-1,3.85Z"
              transform="translate(-6.91 -5.29)"/>
        <polygon class="cls-1"
                 points="931.2 62.87 931.2 64.87 929.83 67.24 931.94 68.8 933.88 66.94 935.65 65.83 934.53 64.13 933.88 61.83 931.2 62.87"/>
        <path class="cls-1" d="M960.87,66.16a13.53,13.53,0,0,1,0,1.7l3.55.15,1.34.89,1.55-.89,1.86-.52-1.93-4Z"
              transform="translate(-6.91 -5.29)"/>
        <path class="cls-1"
              d="M958.2,70.61l-.89,3.92.89,1.93,1.11.89h2a18.69,18.69,0,0,0,1.85.59c.22,0,2.15-2.74,1.86-3.85s-2.45-1.26-2.45-1.26l-1.39-3.11Z"
              transform="translate(-6.91 -5.29)"/>
        <path class="cls-1" d="M945,74.9l3.85-2.22h4.45l.37,3.71-3.12.44-4.22,1.11S944.71,75.94,945,74.9Z"
              transform="translate(-6.91 -5.29)"/>
        <path class="cls-1"
              d="M934.19,49.78V59.86l4.22,1.93v3s5.78-1.33,6.23-.52.44,4.82,0,5.49a3.21,3.21,0,0,0-.23,1.92l4.45-1.92s9.71,2,8.45-1.93c0,0-2-.74-1.34-2.45s1-4.74,1.93-3.78,3.26,1.86,4.08,1.34,4.59-2.82,3.48-3.34-3.34-1.11-3.26-2.74,1-8.15-4.89-7.93-5.93-.84-6.08-2.23a5,5,0,0,0-4.15-4.07c-2.74-.52-4.07-.58-3.63,1.12s1.41,5.26.15,5.18-2.81,0-2.81,0a3.86,3.86,0,0,1-5.12,1.26Z"
              transform="translate(-6.91 -5.29)"/>
        <path class="cls-1"
              d="M965.66,49.92c0-.39.66-2.43.82-3.68s.47-1.57,1.57-1.26,3.91.41,3.68,2.28-.31,4.62-.94,5.24-.31,2.12-1.25,2.2-3.91.39-3.88,0S965.66,49.92,965.66,49.92Z"
              transform="translate(-6.91 -5.29)"/>
    </g>
    <g id="Drunar">
        <path class="cls-1"
              d="M401.28,471.23c1.43,2.34,3.08,1.49,3.54-.54s.48-.3,1.07,1.14,1.38,2.94,3.36.48l1.26,1.2s-1.62,4.8,1.2,2.94c0,0,3.6,1.92,3.84,2.82s1.86-.65,1.86-.65.3-.19.3,1.07-1.2,1.5.48,2a2,2,0,0,1-.42,2.27s1.26,4.5,4.5,2.58a14.1,14.1,0,0,0,1.92-1.68s-.12-1.61,1.14.6c0,0,1.08,1.2,2.46-.72,0,0,.12,4.68,4.26.06,0,0,1,1.68,4.2.6,0,0,3.12.78,3.36-2.21,0,0-.6-1.62,1.38-1.32,0,0,8.28-6.78,9.54-6.3s.3-2,.3-2-.26-2.16.35-2.16a1.63,1.63,0,0,1,1.15-1.2c1-.24,2.51-2.46-2.7-4.5,0,0-2.41-.89,1.19-2.09,0,0,1.87-2.41-4.67-6.49,0,0,.75-2.23-3.06-3.54,0,0-1,.18.18-1.08s2-2.58,2.88-1.86,4.74,2.58,2.52-2.64c0,0-1.32-1,1.5-.46,0,0,1.72-.33,1.38-3.72,0,0,3.84-1.26-1.09-3.5,0,0-.81-.85.8-3.38,0,0,1.55-.74-2.41-.86s-.92-3-.46-3.61-.91-2.58-.91-2.58a.76.76,0,0,1,.28-1.2c.86-.52.58-1.32,1.32-.41s4.23,1,1.89-3.09c0,0,3.33-3-2.58-3.84,0,0-1.26-1-.11-2.87s2.41-2.53,2.58-.92,2.69,4.53,5.39,3,2.35-.8,2.81-3.55c0,0-2.41-3.33,1.26-.92,0,0,1.89,1.49,2.35-2.64,0,0-.11-2.29,5.51-1.95,0,0,1.07-.46,1.18,1.6,0,0,.37,1.44,7.19.29,0,0,5.05-.32,5.19.12s1.62-1-1.9,2.2a7.36,7.36,0,0,0-1.55,2.29c-.22.89-1.36,2.4,2.65,2.24s8.27.22,8.43.54.7-.21.27,1.89,5.78,9,7.84,10.11,2.27,1.36,2.49,3,3,7.9,3,7.9.11,2.21,3.08,1.83,5.57-.32,7.25-.7,1.57-.43.76.38-.87,3.35,9.46,3.08c0,0,12.43-2.65,15.19-1a9,9,0,0,0,5.68,1.08s.05-.48,2.75.87S565,452.46,565,452.46s2.19.09,2.22,3.3-1,2.7-1.89,3.24a10.15,10.15,0,0,1-3.16.73s-8,1.49.56,5.16c0,0,2.33.76,1.95,2s.38,1.68.32,1.95-.86,2.33-.37,3.24-1.79,3-3.79,3.68-6.59,4.22-.59,4.7c0,0,2.54-.54.81,1.52s-5.3,4.59-3.3,5.95c0,0,1.35.86-2.54,2.7s-12,7.51-28.38-3.57c0,0,2.16,2.16,1,3.62s-3.25,8.17-3.25,8.17l-4.59.27s-2.38,2.16-3.89-.71S514,495,512.45,496s-4.21,2-1.35,2.6,0,2.81-.81,2.86-5.84,1.52-6.11,3-.16,1.73,1,2.11.1,1.89-.82,2.38a11.21,11.21,0,0,0-1.83,1.29l-.22,1-6,.54s-1.94,1.79-10.92,2.33a6,6,0,0,0-1.95,2c-.75,1.29-3.13,3.78-5.62,2.48s-3-1.29-4.54.11a24.35,24.35,0,0,1-2.21,1.84s-2.49,2.54-4.44.86-12.22-7.4-13.51-4.05S440,512.15,440,511.88s-5.19-3.83-9.3-2.71c-2.38.65-7.79-1.94-8.43-3.46s-4.27-2.38-8.92-4.43.1,2-4.28-.87-5.94-3.89-7.67-3c0,0-3.69.64-2.23-1.23s4.74-5.31,2.19-7.18-6.61-3.07-3.91-4.48-4.26-.93-3.38-3,6.92-2.49,5.83-4.94a18.77,18.77,0,0,1-1-2.71c-.42-1.5-2.91-1.19-2-2.23C396.89,471.6,399,467.54,401.28,471.23Z"
              transform="translate(-6.91 -5.29)"/>
    </g>
    <g id="Waterdeep">
        <path class="cls-1"
              d="M676.9,632.79a24.14,24.14,0,0,1,2.4,2c1.1,1.07,1.71.1,1.71.1,1.42-.62,7.07-.87,7.61-.75s2,1.25,2.45-.54,1.91-1,3.61-.54,1.33-1.37,1.37-1.49.79-2.83.79-2.83a2.74,2.74,0,0,0,.83-2.62c-.29-1.74,2.33-1.66,4.78-2s3.12-2.7,3.74-4.15,1.95-1.71,2.66-.21a2,2,0,0,0,2.28,1.12s7.15-.46,8.4-.37,1.41-.13,1.41-1.75a2.9,2.9,0,0,1,.95-2.28c.05-.13,4.66-2,5.53-2.83a3.71,3.71,0,0,1,2.49-.7s5.49.41,6.94.08a2,2,0,0,1,2.12,1.08s1.29,2,2.28,3.28a2.11,2.11,0,0,0,2.5.67c.12-.05,4.65.08,5.81.7s1.37,1.54,3-.75,8-5.52,9.55-6.35a2.45,2.45,0,0,0,1.46-2.24,31.13,31.13,0,0,1,.78-3.16c.5-1.58-1.57-1.29-3.11-1.12s-1.16-1.42-1.16-1.42l-.17-1.45a1.51,1.51,0,0,1,.66-2.2,10.77,10.77,0,0,0,3-.58c1.45-.54,1-1.54,1.28-2.37s-.54-2.58-1.27-3.78-2.59-1.75-3.88-1.79-2.32-.75-1.58-2.28-.83-1.91-1.37-2.37-1.41-1.91-2.45.41-4.69,2.58-4.69,2.58-3.2.17-3.28-1.37a1.42,1.42,0,0,0-1.62-1.37s-3.29,0-4.62,0-6.19-2.91-6.19-2.91,9.14-.87,11.6-.87,1.7-.42,1.78-2,.87-1.62,2.58-1.79a2.37,2.37,0,0,0,2.12-1.41,32.36,32.36,0,0,0,2.24-3.31c.71-1.32,1.7-1.59,4.24-.39s2.82-.62,4.36-2.57.33-2.74,0-4.11-1-2.25-2.2-2.16-1.79-.05-2.33-1.62a1.51,1.51,0,0,0-2.12-.88,14.23,14.23,0,0,0-5.19.75c-2.29.91-1.91-1-1.91-1,1.08-3.16-6.15-.17-7.11.37s-2.41,1.16-3.44-.79-4.74-1.29-5.49-1.33a2.32,2.32,0,0,0-2.08.75,4.27,4.27,0,0,1-1.49,1.16,4,4,0,0,0-1.83.79c-1,.71-1.25.54-1.2,0s-.13-1.2-1.33-1.08-1.54,0-1.58-1.66a1.59,1.59,0,0,0-1.66-1.58l-9.19-.62s-.78.79-1.2.37-5.44-1.7-6.65,0-4.53.17-4.53.17h-2c.21-2.66-2.62-3.2-4.28-2.87s-1.25-.91-1.25-.91V554.6c0-.17-1-.88-1-.88l-.46-1.2c-1.16,0-1-.54-1-.54.21-1.58-.66-1.41-1.7-1.41s-1.66.5-1.54-1.37-1-1.83-1-1.83c-3.36-1-3.89.32-3.89.32a2.14,2.14,0,0,1-3.09.34l-1.72-1.51c-1.1.07-1.72-.68-2-.68s-2.47-4.05-2.47-4.05a1.64,1.64,0,0,0-.42-1.86c-.89-.75.14-2.4.14-2.4,2.2-3.3-.41-2.61-.41-2.61l-2.68.14a3.74,3.74,0,0,0-3.16-.21c-1.37.75-1.23,1.17-1.16,2.75a4.44,4.44,0,0,1-1.52,2.95s-1.92,0-1.23,2.61-1.72,1.92-1.92,1.78-4.81.42-3.78,2.68-.89.89-2.68,1.92-1.51.62-1.72-.48,1.1-2.12-3.29.42a9.31,9.31,0,0,1-8.38.55s4.26-2.34,4.88-3.23.89-1,3-1.44,1.78-2,1.78-2,.35-2,3-.5,2.54-.89,2.54-.89l.68-1.44-.68-1.37s-.35-.9-.62-1.52-2-.41-3.09-.68-.89-.62-2.34,1-3.7-1-3.7-1c-2.48-.55-1.65-1.37-1-2.4s1.09-3.78-.61-3.71-1.18-1.65-.42-2.34.27-1.92.27-1.92l-1.58-3.3c.41-1.71-.14-1.92-1.58-2.12s-.75,2.47-.75,4.12-2.2,1.71-3.64,1.16-2.2-.55-1.86,1-1.71,1.65-2.61,1.86-2.33,3.09-2.33,2.13-4.4-2.2-4.4-2.2l.9-5.49,4.18-1,.28-2.54s2-.89-.21-1.58-.89-.75-1.71-2.67,1.37-1.65,3-2.13.2-1.65.2-1.65L630,508.07c-1.92.14-3.71-3.5-3.44-5.7s-2.6-3.09-2.6-3.09l.48-9.61c-7.28,1-8-1.24-8-1.24.14-1.31-1.92-4.26-8.1-2.61a62,62,0,0,1-13.25,1.72c-3.58.2-2.77-3.44-2.77-3.44,1.25-2.13-4.32-1.45-4.32-1.45-5.48-.22-3.49,2.21-3.49,2.21.62,3-5.15,2.06-5.15,2.06-2.75,1.85-13.12,1.58-14.21,1.37a27.18,27.18,0,0,0-4.47.07c-2.33-.34-1.85.62-1.85.62-.69,1.39-4.12,2.81-4.12,2.81-9.62,7.08-24.72-1.09-25.48-2.12s0,.89,0,.89c-2.26,1.58-3.16,6.73-3.64,8.31s-1.37.75-1.37.75l-4.14.52c-1.72,1.54-3,.43-3.5.24s-1.24-1.2-2.15-2.68-.77-.86-1.44-.77-2.39.91-1.15,1,1.2.91,1.25,2.25-2.83,2.2-2.83,2.2a28.39,28.39,0,0,0-3.45,1.3c-3.06,1.24-1.05,1.82-.47,2.39s.19,1.63-.2,2.54-2.63,2.35-2.63,2.35c0,1.47-1.68,1.53-2.44,1.24s-3.69.38-3.69.38-5.6,1.92-9.15,2.06-3.83,1.44-3.83,1.44-3.25,4.88-5.41,3.59a8.42,8.42,0,0,0-4.26-1.2s-4.5,2.4-4.6,3.83a6.18,6.18,0,0,1-2.63,5.08c-2.35,1.87-4.12,1.49-5.75,1.63s-2.3.05-3.16-1.82a3.67,3.67,0,0,0-3.45-2.59c-1.86-.28-3.44,1.87-4.35,3.36s-2.3,1.1-3.88,1-1.15,1-1.15,1v3.16s.52.38,2.92,2.59a5.66,5.66,0,0,0,4.84,1.62,9.43,9.43,0,0,0,1,1c.15.05,1-.46,1-.46.95-.4,2.14,2.86,2.78,3s1.66,2.93,2,3.65,7.94,1.51,7.94,1.51,5.25,1.59,5.56,1.67a18.81,18.81,0,0,1,2.15,1.59,33.83,33.83,0,0,0,4.05-.48c2.22-.4,2.22.32,2.22.32.8,3.49-3.09,4.13-3.49,4.76s-1.75,2.31-1.75,2.31-2.14.39-2.38.39a1.59,1.59,0,0,0-1.51.8c-.64.87-1.19.16-2.23.24a17.88,17.88,0,0,0-2.38.39c-1.35,1.91-1,2.7.32,1.91s1.67-.56,3.81-.56.88,2.62.88,2.62a16.8,16.8,0,0,1-2.07,2.78c-.63.48-1.67,4-1.91,4.77s2.23,4.45,5.41,2a4.87,4.87,0,0,1,5.8-.56l2.06-.08s2.38,0,2.54-1.43.8-1.11,4.85-2.46,4.52.32,5.79,1.82,6,1.12,6,1.12c2.62.23,1.11-1,1.11-1a2.7,2.7,0,0,1-.87-2.3,2.43,2.43,0,0,0-.4-2.06l-1.11-2,1-.79s1.59,1.82,2.07,2.22a8.19,8.19,0,0,0,3.25,1.51c1,.08,2.55-1.59,2.94-1.75a4.65,4.65,0,0,0,2.54-1.35,3.07,3.07,0,0,0,.4-2.46h2.86a27.43,27.43,0,0,1,2-2.07c-.16.32,9.67-.79,9.67-.79,6.55-6.62,10.38,2.14,10.38,2.14.44.58,7,1,7,1,7.73,2.72,10.08-2.73,10.08-2.73,1.4-6.33,8.69-3.31,8.69-3.31a4.72,4.72,0,0,0,4,1.33c2.8-.22,4.35,3.23,7.07,7.06a4,4,0,0,0,6.11.88c6.18-4,7.43,1.11,7.43,1.11s14.65.81,17.22-4.56a8.45,8.45,0,0,1,8.31-4.71c2-.77,3.78,3.83,6.61,5.36s-2.25,8.29,1.48,8.34,4.22,6.51,4.22,6.51a6.09,6.09,0,0,0,4.26,6.32c4.83,1.77,1,6.8,1,6.8s9.53,4.93,9.77,6.8-1.44,4.84.76,3.83c0,0,18.71,8.55,13.28,8.66s-9.65-2.5-10.3-1.52a2.35,2.35,0,0,0-1.85,2.17c-.11,1.84-1.3,3.47-3.36,3.26a3,3,0,0,0-2.93,1.51s-.11,4.34,2.06,4.45a11.23,11.23,0,0,0,3.35.77c1.43,0,4.14.2,5.1,2.65,0,0,.2.75,2.37,1.5s6.19,2.17,5.1,4.89c0,0-1,2,1,2s4.62,2.24,4.62,2.24a7.14,7.14,0,0,0,3.47,1.16,48.27,48.27,0,0,1,7.75,1.15c.27.21,1.08-2.17,3.19-.61S676.8,634.92,676.9,632.79Z"
              transform="translate(-6.91 -5.29)"/>
        <path class="cls-1"
              d="M697.63,541.43s-1.45-.31-.69-1.5.81-2.89,1.94-1.82,1.45-.19,1.38-.69.07-1.45,1.13-1.13,2.14.37,2.2,1.25.06.63.88.82,3-.06,2.13,1.82-.56,1.82-2,1.57-2.27-.63-2.83.12-1.06,1.19-1.94.57A8.38,8.38,0,0,0,697.63,541.43Z"
              transform="translate(-6.91 -5.29)"/>
        <path class="cls-1"
              d="M707.48,520.91c-.19,0-.82,1.07-.94,0s.06-2.44.47-1.94,1.1-.11,1.1-.11a1.33,1.33,0,0,1,.94.92c.19.76.25,2.08-.44,1.61A2.24,2.24,0,0,0,707.48,520.91Z"
              transform="translate(-6.91 -5.29)"/>
        <path class="cls-1"
              d="M708.67,533.34s-.06-2,1-1.19,1.5.06,1.5-1.13.63-2.7,0-2.77,1.45-4.7,2.2-3.82.25.81.75.88.94,1,.88,1.75.19,2.07-.5,2.2-.57,1.5-.44,1.69,1.38,1.7-.06,2.39-1.57.56-1.89.56S710.18,535.85,708.67,533.34Z"
              transform="translate(-6.91 -5.29)"/>
        <path class="cls-1"
              d="M761.89,585.61s-.13.69,1.44.69,3.64.38,3.2-.69a3.52,3.52,0,0,0-1.26-1.57s-1.56-.75-2.44,0A2.51,2.51,0,0,0,761.89,585.61Z"
              transform="translate(-6.91 -5.29)"/>
        <path class="cls-1"
              d="M771.05,565s-.38-2.13,1.31-2.32a4.09,4.09,0,0,0,3.71-4c0-2.45,3-3.2,3-3.2s2.07-.76,1.94.87-.06,2.38.7,2.61,1.12,2.48-1.51,3.42-2.37.12-3.57,1.88.18,2-2.2,2.26-3.53.31-3.43-.38A4.47,4.47,0,0,0,771.05,565Z"
              transform="translate(-6.91 -5.29)"/>
        <path class="cls-1"
              d="M766.59,560.38c-.5-.06-1.5-1.31-.94-1.82s1.19-1.13,1.69-.31.95.87.95.87,1,.7,0,1.26A1.51,1.51,0,0,1,766.59,560.38Z"
              transform="translate(-6.91 -5.29)"/>
        <path class="cls-1"
              d="M704.21,636.36c-.29-1,1.19-3.83,2-3.79s1,0,1-.76,0-2.25,1-2.11,1.34-.62,1.49,1-.15,1.77.67,1.91,1.82-.43,1.58.82.19,2.35-1.1,2.39-2.06-.72-2.3.1-.38,2.39-1.63,1.91S704.64,637.94,704.21,636.36Z"
              transform="translate(-6.91 -5.29)"/>
        <path class="cls-1"
              d="M726.57,623.24l.86-.91a2.88,2.88,0,0,0,2.11.24c1-.39,2.73-1,2.73-1l1.34.84h2.92s.62,1.79,0,2.47-2.54.33-2.54.33l-1.34,1.63s-4.45-.82-5.41,0c0,0,1.58-1.1.91-1.63S725.71,624.15,726.57,623.24Z"
              transform="translate(-6.91 -5.29)"/>
    </g>
    <g id="Valenris">
        <path class="cls-1"
              d="M518.64,558.91l9.21-1s5-5.92,8.87,1.22c0,0-.67,1.06,3.18,1.4a41.81,41.81,0,0,1,6.24.95s7.09,2.12,9.76-4.13c0,0,.84-4.35,6.81-2.4,0,0,2.73,1.67,4.57,1.51a2.75,2.75,0,0,1,2.85,1.45s3.68,4.74,3.68,5,2.73,4.24,6.41,1.9,5.75-3,7,.16c0,0,.23.74,1.73.57s9.65.66,14.11-2.3,2.68-3,3.85-4.33,4.76-3.69,7.31-2.69c0,0,.84-.17,1.73,1.28s2.45,3.72,3.68,3.68.56,2.79.56,2.79-3.13,6.47,2.4,6c0,0,1.67.45,2.34,3.91,0,0-.11,3.9.72,4.79a5.66,5.66,0,0,0,3.63,3.52c2.77.77,3.18,3.07.89,6.52,0,0,9.37,6,9.32,6.14s.95-.06.5,2.62.06,3.1,1.56,2.73,26.89,11.89,3.74,5c0,0-2.79.73-3.24,3s-1.5,2.73-2.95,2.62-3.68.72-3.46,4,2.06,3.85,3.57,4.07c0,0,4.91.67,5.79,1.16s1.42.83,1.33,1.23.63,1.42,1.66,1.66,6.87,2.11,5.7,4.52,1,3,2.3,3.09,7.9,3.83,5.45,4.07-7.66,3.88-7.66,3.88-.73,1.32-2.69.29-1.87.35-2.06.74a22.49,22.49,0,0,1-1.23,2.6c-.15,0-.2,1.52-2.06,1.13s-13.79,2.25-13.79,2.25-1.37,1.28-2.8-.78-2.65-2.5-3.92-2.41c0,0-9.91.2-10.65.69a1.77,1.77,0,0,1-2.75-1c-.49-1.62-.39-3.53-3-3.19s-3.87.54-3.68-1.27a3.37,3.37,0,0,0-2.55-3.44c-1.13-.19-1.86-.59-3.24.1s-1.71,1.18-2.5-.54-.83-2.21-2.84-2.16a11,11,0,0,0-6.58,2.65l-1.52,2.11s1.67,1-2.21,2.26c0,0-2.3-.35-3.53.49s-1.57.83-2.55-.25-3.24-4.61-6.28-4.46-3.24-.15-3.39-.74-.44-1.18-1.67-.44-3.68,2.14-3.68,2.14a21.25,21.25,0,0,0-2.25,4.09c-.44,1.47,1.47,4.32,1.86,4.42a2.71,2.71,0,0,1,1.67,1.81c.1.94.83,1.67-.88,1.52s-2.7-.54-2.8.69-.49.83-1.32.79a50.08,50.08,0,0,0-5.65,1.17,2.45,2.45,0,0,1-1.32-.59c-.34-.44-.88-1.37-1.72-.09a44.4,44.4,0,0,1-2.94,3.63s.34.88-1.67,1.27-6.08.79-6.08.79-1.82.64-2-1-.49-3.78-2.4-3.24a23.18,23.18,0,0,1-5.45.83c-.09-.14,0-.88-.14-.88s-5.25,2.11-5.25,2.11-1.33,1.23-2-.25-.79-2.55-3.19-1.86-3.29,1.32-4.22-.15-5.79-5.2-5.89-5.39-2-.3-1.72-2.61-2.79-2.89-2.79-2.89l-1.72.2s-.74-.69-1.08-.59-4.71,0-5.45,3.28-2.94,5.06-4.41,2.65-2.9-.58-2.9-.58-3.63,2.3-1.32,3.43.73,2.89-.74,2.4-2.21-.68-2.21-.68-.73-2-3.38-.89c0,0-1.28,1-2-1,0,0-1.77-.34-.54-2.45s3-3.53,1.62-4.32-.89-.64-.4-2-.54-2.8,1.38-2.65,1.86-1.47,2.4-2,1.08-2.45,3.44-2.65,1.57-.1,2.5-1.37l3.14-3.63s1.86-1.77-.59-2.61l-2.9-.63s-1.57.29-1.61-2.11-2.8-3.49-5.75-1.43a1.9,1.9,0,0,1-2.15-.14c-1.13-.84-1.23-.4-2.6,0s-5.89.05-3.44-4.32c0,0,.79-1.52.44-6.23,0,0,.44-2.26-2.89-2.26s-4.17.44-4.42-1.76,0-2.56-1.81-3.59c0,0-1.62-6.18,5.64-7.45,0,0,9.91-6.68-4.66-8.64,0,0-6.28.88-4.81-3.73s6.48-10.79,7.85-10.06c0,0,3.6,3,6,.85s5.42-.51,6-.44c0,0,6.06,0,5.39-2.2,0,0-.53-1,2.84-1.59s4.1-.92,5.36.82,2.7,2,4.77,2,7.23.34,4.63-2.26c0,0-1.54-1.16-1-2.41s-1.2-3-1.2-3,2.6,3.08,4.1,2.79a4.15,4.15,0,0,0,3.57-.86,1.86,1.86,0,0,1,1.2-.68c.72-.05,3.18-2.56,3.33-3.47s0-.48,1.64-.44l1.69-1.3Z"
              transform="translate(-6.91 -5.29)"/>
        <path class="cls-1" d="M465.3,632a5,5,0,0,1,0,2.38c-.26.32,1.86,1.09,2.31.57s.07-1.48,0-1.73-.13-1.22-.83-1.22Z"
              transform="translate(-6.91 -5.29)"/>
        <path class="cls-1"
              d="M471.47,645.06c-.19-.13-.45-2.06.9-2.38s1-1.35,1-1.93.38-2,1.93-.45c0,0-.13,1.1.32,1.48s1.73.77.32,1.93-1.35,2.06-1.35,2.06a1.09,1.09,0,0,1-1.16,1c-1.16.06-1.61.71-1.8-.52Z"
              transform="translate(-6.91 -5.29)"/>
        <path class="cls-1"
              d="M470.5,658.37c-.06-.26-1-.51,0-1.41l.81-2.83s-.48-.58.87-1.1,2.31-1.28,2.7,0a1.75,1.75,0,0,0,1.48,1.35,1.73,1.73,0,0,1,0,2.45c-1.16,1.35-.58,0-1.16,1.28s.74.84-1.24.77-2,.13-2,.13Z"
              transform="translate(-6.91 -5.29)"/>
        <path class="cls-1"
              d="M483.81,656.76c-.25,0-1-.25-.19-1.6s.58-2.06,1.86-1.42.91.9,1.1,1.93.83,1.8,0,2.31-1.35.45-1.67,0A15,15,0,0,0,483.81,656.76Z"
              transform="translate(-6.91 -5.29)"/>
        <path class="cls-1" d="M473.45,634.58c-.37-.45.21-2.06.78-1.67s.65,1.29.33,1.29A4.14,4.14,0,0,0,473.45,634.58Z"
              transform="translate(-6.91 -5.29)"/>
        <path class="cls-1"
              d="M580.56,648.28s-2,.42-1.88-.73-.37-2.62.94-2.38,2.22.49,2.4,1.22.61,1.92-.24,2A3.72,3.72,0,0,1,580.56,648.28Z"
              transform="translate(-6.91 -5.29)"/>
        <path class="cls-1"
              d="M561.43,654.11c-.21-.36-2-2.79,0-1.94a2.35,2.35,0,0,0,1.19.18c.49-.12,1.4.49,1.64.7s.79-.46,1.28-.64,1.83-1.46,2.56.31,2.55,1.83.54,2.16a8.43,8.43,0,0,1-1.64.69,16.72,16.72,0,0,1-2.49,0c-.61-.19-2.28.07-2.68-.7Z"
              transform="translate(-6.91 -5.29)"/>
        <path class="cls-1" d="M688.29,680.91s-1.77.84-1.5-.47-.65-3.16,1.12-2.51,3.73.22,3.08,1.55-.47,2-1.59,1.69Z"
              transform="translate(-6.91 -5.29)"/>
        <path class="cls-1"
              d="M702.07,692.27c0-.83-2-6.52.38-5.49s3.35-3.64,3.35-3.64,1.86-3.44,3.07-.46c0,0,.18,1,1.73,0,0,0,.92-.68,1.45.19l2.67.19s1.83.22,1.16-1.78-1.41-2.51.77-3.34,3.92-1.89,4.26.29,2.56,2,2.81,2.08,2.46,0,2.32,1.25.92.83,1.84.87,1.74.32,1.69-1.15-.05-2.12,1.89-1.57a13.25,13.25,0,0,0,4.69.11s2.08.05.53-1.64.09-1.79.58-1.89,3-1.16,3-1.16,3.15-1.54,6,2.86a3.46,3.46,0,0,0,3.24,1.57,6.77,6.77,0,0,0,3.19-.9c.15-.1,1.4-1.11,2.18.24s3,3.49.82,4.21a36.44,36.44,0,0,0-5,2.28s-.92,1.69-2.42.09-5.76-3.63-8.18.34c0,0-.72,1.94-2.17.82s-4.94,1.89-4.94,1.89a2.29,2.29,0,0,0,0,3c1.35,1.5,1.21,2.13-.53,2.9l-2,1.79s.12.44-1.44.87a17.39,17.39,0,0,1-3.2.54,1.93,1.93,0,0,0-1.74,2s0,3.68-.39,4.11-.1,1.7-1.89.49a7.85,7.85,0,0,0-4.26-1.07s-2.61,2-2.08-1.06-3.48-2.23-3.48-2.23-1.65,1.21-1.6-1.5-2.17-2.42-2.61-2.47-1-.91-1.45-1.06a9.44,9.44,0,0,0-1.94.19c-.53,0-2.75.54-2.51-1.25S702.07,692.27,702.07,692.27Z"
              transform="translate(-6.91 -5.29)"/>
        <path class="cls-1"
              d="M737.93,698.68s-.31-2,1.66-1.48a3.12,3.12,0,0,0,3-.61s1.17-.62,1.54,1a3.58,3.58,0,0,0,1.41,2.28s2.15,1.35,0,1.84a23.24,23.24,0,0,1-3.93.55s-1-.67-1.48,0-2.45.93-1.9,0,1.47-1.66.49-2S737.93,698.68,737.93,698.68Z"
              transform="translate(-6.91 -5.29)"/>
        <path class="cls-1" d="M458.56,607.16s-1.79,2.1-.62,2.59,2.9.18,2.34-.93S458.82,606.81,458.56,607.16Z"
              transform="translate(-6.91 -5.29)"/>
        <path class="cls-1"
              d="M459.91,614.62s-.06-1.6.74-1.85.68-1.42,2-.31,1.17.37,1.17.37a1.46,1.46,0,0,1,1.05,1.11c.18.93-.25,1.79-1.05,1.73s-1.11-.55-2.1,0A1.23,1.23,0,0,1,459.91,614.62Z"
              transform="translate(-6.91 -5.29)"/>
    </g>
    <g id="Ungol">
        <path class="cls-1"
              d="M469.74,522.58s-2.92.65-3.57-.16-7.79-5-8.84-4.95-2.76-.49-3.16.41-2.44,1.62-4,1-6.73-3-8.59-4.54-7.46-4.95-8.84-4.54a6.42,6.42,0,0,0-1.79.27c-.76.27-3.37-.25-3.64-.31s-5.13-2.12-5.22-2.62a4.25,4.25,0,0,0-1.75-1.93c-.59-.23-8.1-3.69-8.1-3.69h-.5s.27,1.53-1.39.63-6.57-3.91-7-4a29.77,29.77,0,0,1-4.14,0c-1-.22-1.94-1.12-.86-2.43s3.51-4.5,3.06-5.08c0,0,.18-.7-2-1.78s-5.57-3.61-2.84-4.72c0,0-.15-.7-1.22-.41s-4.84-2.21,0-4.54,3.77-2.14,3.4-2.95-.3-2.4-2-3.18c0,0-.18-.52-1.33.3l-2.52.92s-4.05,1.7-5.27-.37-1.18-3.84.78-5.1c0,0,1.66-.66.14-1.58s-2.65-1.7-.88-3.47,1.63-1.59-.9-2.66-3.53.07-2.24-1.67c0,0,1.18-.33-1.07-3.24,0,0-1.84-1.07-1-2.18s-.37-3.84-1.22-3.62-1.9-1.63-1.84-2.59-2.37-2-3.25-2.14c0,0-2.7,1.07-3.36-.4a1,1,0,0,0-1-.82c-.81,0-1-.14-.74-1.25s1.14-2.59-.85-2.62-3.21.44-4-.67-1.51-2-2.73-1.22-3.84.26-3.84.26-.92-.22-.88-1a1.82,1.82,0,0,0-1.41-1.51c-.33.07-2.36-.52-1.66.92s-.29,1.41-.29,1.41-.52,1.25-2.26,0c0,0-2.21-.78-6.83.66a2.6,2.6,0,0,1-3.51-.18c-1.58-1.7-1.82-1.89-3.23-.3s-.9,2-3.38,2-3.5,0-2.8,2.29,1.07,3.32-1.52,3.95-3.06-.4-6.94,2.14-5.54,3-6.5,1.89-1.88-1.37-2.91-.74-2.7,0-3.36,2.07-1,2.51-2.26,1.1l-3.5-.48s-1.81-.44-.63,2,.29,3.32-1.29,3.4-6.13.48-6.13.48-.45.62-1.81-1.22-6.36-3.51-7.61-3-1.37-.85-2.77,2-1.85,2.66-3.51,2.36L275.9,459l-1.7-2.59-4.06.34-.89,3.5s-2.1,5-6.68,6.65c0,0-2.69.26-1.62,2l.62,1s-2.29,2.32-2.69,3.51-2.85.7-3,.14,0-1.51-1-1.25-3.54.48-3.47,1.95-.07,1.48-1.44,1.63a7.58,7.58,0,0,0-2.84.92c-.55.3-1-.15-1.33-.66s-.52-.48-1.66-.26-4.73,1.22-5.84-.19-3.84-6.35-3.84-6.35,3.81-4.61,2.92-5.39-3.58-5.24-4.58-4.91-2.69.55-2.69-.77-.71-.52-1.7-.56-4.91.48-4.84-1.36-.44-1.56-1.22-1.7-3,.37-2.88-1.52.85-2.62-1.36-3.14a5.34,5.34,0,0,1-3.25-2.91s-.78,2.36-.78,2.51-4.14,2.29-4.17,2.4a32.54,32.54,0,0,0,2.4,3.17c.07,0-1.44,2.37-2,2.4s-3.06-.37-2.88-.18,2.44,3,2.44,3,.44,1.11-.41,1.47a1.47,1.47,0,0,0-.85,1.63,1.26,1.26,0,0,0,1,.55c.48,0,3.32-.4,3.91,1.26s2.7,4.1.52,4.13-1.07.19-1.29,1.52-1.26,3,.48,3.47,3.36-.22,2.62,2a6.49,6.49,0,0,1-2.7,3.65c-.52.19-1.4,1.07-1.88,0s-1-3-2.11-2-1,.77-1,.77,1.44,2.74,1.44,2.88,3.58,2.74,3.58,2.74a33.61,33.61,0,0,0,4.84.25,20.58,20.58,0,0,0,2.95-1.4s2.77-.55,3.4.08,1.14,2.65.66,3-1.11.63-1.37,1.26a5.68,5.68,0,0,0-.11,2l-.18,1.55a4.43,4.43,0,0,1,1,1,2,2,0,0,1-.41,2.22,12,12,0,0,0-1.11.88s1.89,1.37,2,1.55a28.69,28.69,0,0,0,2.62,1.55l1.36-2.17,2-.78,5.9.3s1.67.33,1.85,1.21a17.36,17.36,0,0,1,.18,2.55s.6,1.63,1.67.92,4.61-.25,4.61-.25,2.62,0,3,.44,1.81,2.29,1.81,2.29a7.85,7.85,0,0,1,.18,1.22c0,.59.85-.11,1.33,1.07a10.54,10.54,0,0,0,2,2.66s1.29,1,.62,1.81-2.51,1.36-.92,1.58a3.24,3.24,0,0,1,2.18,1.07s1.14,2,1.85-.77l.26-1.37s4.17-2.32,5.39-4a7.35,7.35,0,0,1,3.06-.26c1.18.29,2,1.36,2-.41s1.26-1.92,2-2.1,2.69-.23,2.8-.3,1.22-.52,1.85-3.25c0,0,.18-1.73.88-2.07s5.69-5.28,6.39-6.79l4.47,1.66,2,3s3.44,0,3.92-.33.7-.55.77.85-.92,2.88,1.44,2.29,3.84.55,3.69,1.47,1,4.84,3.4,3.59,3.69-.37,4-.71,1.7-.11.74-1.18-.19-1.66.88-1.4,3.7-.74,5.1.89,1.59,1.77,3.06.25c0,0,.67-1.29,1.85.08s1,1.14,2.25.11a5.43,5.43,0,0,1,3.73-1,6.45,6.45,0,0,1,5.73,3.06,9.47,9.47,0,0,1,1.18,6.31c-.19,1.11-.26,4.51,2.66,2.59s4.06.41,4.17.48.85,2.18,2.73.22c0,0,1.33-2.44,3.1-1.11s.93,2.7.45,3.14-.3,2.25-.3,2.25l-3.77,2.4-.33,3.4s6.5.92,7.05.92,1.89-2.54,1.89-2.73,3.84,3.1,10.34-.51a1.9,1.9,0,0,1-.82,2.21c-1.29.74-5.53,1.18-5.61,1.59s.81,1.22.59,1.55-2.77,2.1-2.69,2.62-.67,4.8.55,4.69a32.14,32.14,0,0,1,4.91.55s.93.37.89.89.74.92,2.58.81,2.18-.4,2.55-.81,1.74-1.55,2,.07a2.89,2.89,0,0,0,1.88,2.18l4.65-.26s2.15-3.13,3-2.84,1.37,1.74,1.22,1.63a17.72,17.72,0,0,1,2.47-.08s.15,1,.26,1l3.55,0s1.73,1,1.66,1.14-2.84,3.62-3,3.66,8.9-6.35,9.05-6.35,10.3-.08,10.85-.19,4.25-2,4.88-3.13,2.77-3.66,4.69-3.4,2.8.37,5.72,2.69,7.86,1.55,7.86,1.55a26,26,0,0,1,6-.88c2,.15,8.82.35,10,.22l6.94-.59a15.38,15.38,0,0,1,.3-3.14c.26-.48,3.73,0,4.32-.26s3.1-4.17,4.21-4.13,3.5-.11,4.06.33,1.51,3.36,2.47,3.54,7.71,1.26,9.62-5"
              transform="translate(-6.91 -5.29)"/>
        <path class="cls-1"
              d="M201.19,473.8c0-.27,1.07-1.16,1.07-1.16s.49-1.68,1.28-1.24,1.69,1,2.18.71,1.37-.78,1.33.45a2.46,2.46,0,0,1-1.24,2.3c-.71.4-1.38-.44-1.38-.44l-.89.55Z"
              transform="translate(-6.91 -5.29)"/>
        <path class="cls-1"
              d="M196.27,462.93s1.24,4,1.86.57c0,0,0-1.24,1.11-1s1.73,0,1.64-1,1.2-3.33-.49-2.84-2.48.71-2.66,1.29S196.27,462.93,196.27,462.93Z"
              transform="translate(-6.91 -5.29)"/>
        <path class="cls-1"
              d="M192.5,445.09c.17-.61,1.73-.76,1.73-.76s1.68-1,2,0,1.24,2.84,0,2.67S192.14,446.29,192.5,445.09Z"
              transform="translate(-6.91 -5.29)"/>
        <path class="cls-1"
              d="M213.08,439.45a18.57,18.57,0,0,0-.17-3s-.89-1.13,0-1.53,1.68-2.18,2.57-1.55,1.91,1.37,1.91,1.37,1.11-.58,1.15.8-.09,3.55-.84,3.68-2.62-.75-2.62.22-.22,2-.8,1.29S213.08,439.45,213.08,439.45Z"
              transform="translate(-6.91 -5.29)"/>
        <path class="cls-1"
              d="M166,411.68c-.13-1-.75-2,.22-2.27s3.91-.93,3.73.27.18,2.66-.84,2.75A10,10,0,0,1,166,411.68Z"
              transform="translate(-6.91 -5.29)"/>
        <path class="cls-1"
              d="M175.5,419.35a10.07,10.07,0,0,1,2-1.68s.58-2.27,1.46-1.69,3.69,1,4,2.18,2.08,2.08,2.35,5.5c0,0,.4.49-.67.71s-4.26-.4-2.93,1,3.69,3.9,2.09,3.77-3.91-.4-4.57-1-2.44-1.64-2.09-3a10.42,10.42,0,0,1,1.51-3.46c.4-.31,1.29-2.35.4-2s-.8.89-1.55.8A5.63,5.63,0,0,1,175.5,419.35Z"
              transform="translate(-6.91 -5.29)"/>
        <path class="cls-1"
              d="M157.93,469.45s.58-1.6,1.15-1.6,4-1,5.15-1.11,1.42-.8,2-1.28,1.06-1.25,1.91-1.07,3.1.18,4.08,1.51,3,2.17,2.26,3.11a12.16,12.16,0,0,1-1.2,1.33s.22,1.62-1.33,1-2.35-2-3.55-1-3.86,3.46-6.88,1.9a11.33,11.33,0,0,0-3-.91C157.71,471.36,157,471.22,157.93,469.45Z"
              transform="translate(-6.91 -5.29)"/>
        <path class="cls-1"
              d="M146.88,458.84c.09-.35.53-1.42,1.56-1.37s2.57.17,2.92.69.85.91-.4,1.17-1.64-.22-2,.45,0,1.9-.84,1.19-1.82-.44-1.51-1.28Z"
              transform="translate(-6.91 -5.29)"/>
        <path class="cls-1"
              d="M178,454.19c.84.75,1.2,3.28,1.2,3.28l2.84-1.64,2.75-1.38.8-4.7-2.75.26s-1.42,2-1.73.58-.94-5.08-2.18-5.14-4.6-1.2-4.32-1.87,1-.93.86-2.35,0-3.15,0-3.15a8.73,8.73,0,0,1-2.66-.45c-.49-.35-.31-4.17-.31-4.17s1.6-4.17.31-4.52a3.44,3.44,0,0,0-2.13,0,1.54,1.54,0,0,1-2.09-.76c-.62-1.42-1.06-2.7-2.39-2.08s-6.92,3.19-9.1-.71-3.5-5.46-3.9-5.5,3.33-4.88,3.1-5.42-7.05-5.85-7.05-5.85-8-5.42-8.17-5.59a10.65,10.65,0,0,0-4.17,1.33c-.57.57-5.37-2.09-5.37-2.09s-4.92-8.3-5.94-8.43-2.09,2-2.71,1.33-3.68-4.7-4.12-3.95-5.68,5.68-5.6,6.08,1.74,1.07,1.2,2.4a28.44,28.44,0,0,1-4.12,5.37,1.49,1.49,0,0,0-.4,2.35c.88,1.24,1.73,1.6,1.15,2.26s-3.73,2.53-3.19,3.28,1.64,3.6,2,4.22,4,.67,3.91,1.55-.49,1.42,0,1.91,7.06,1.55,6.7,2.8-.71,4.79-1.77,4.79-5.59-.8-5.77-.14-.8,3.91-.27,4.18,5.28,1,5.59,1.81.31,8.08,1.16,8.3,2.79-.57,3.06.67a13.17,13.17,0,0,0,.93,3.24c.31.4,1.38.57,1.38.57l0,1.82s.27,2,1.24,1.82A11.74,11.74,0,0,0,129,449s5.24-1.33,5.68-1.15,5.64-1.47,5.64-1.47l2.26-2.66,1.68,1.46,2.8-1.73,5.28-.31s-.8,2.53-.36,3,2.53.67,2.45,1.33-.63,4.7.22,4.66a66,66,0,0,1,6.79,1.73l3.15-1.46.66.48,6.08-1.77s2.44,3.33,2.88,3.19S178,454.19,178,454.19Z"
              transform="translate(-6.91 -5.29)"/>
        <path class="cls-1"
              d="M133,397c.05.69-.59,2.41.27,2.31s1.88-.85,2.31-.72,1.18.24.91-.44a6.32,6.32,0,0,0-1.23-1.58Z"
              transform="translate(-6.91 -5.29)"/>
        <path class="cls-1"
              d="M133.84,389.57c-.15.3,2.69,4.25,2.69,4.25l5.69-1.08-1.67-4.56-3.33-2.74-1.34-5-6.34-5.64-1.34,3.6,4.6,7.62,1,.91A8.4,8.4,0,0,1,133.84,389.57Z"
              transform="translate(-6.91 -5.29)"/>
        <path class="cls-1" d="M50.78,380.18a2.74,2.74,0,0,1,.7-1.88l2.2.54s1,2.84,0,2.79A9,9,0,0,1,50.78,380.18Z"
              transform="translate(-6.91 -5.29)"/>
        <path class="cls-1"
              d="M64,382.76A15.42,15.42,0,0,1,62.38,381l-3.92.65s-1.61,1.23-1.66,1.93a29.2,29.2,0,0,1-1.18,3.6s-2.31,2.41.32,2.74h1.34s1.45,3.32,1.88,3.16,1.77-.91,1.77-.91l2.42,0,1.23,1s5.37.21,5-.54-1-2.15-1-2.15,3.28-4.19,2.79-4.94c0,0-1.82-1.4-1.88-2.09s-1.45-1.78-2.14-1.24S64,382.76,64,382.76Z"
              transform="translate(-6.91 -5.29)"/>
    </g>
    <g id="Belrod">
        <path class="cls-1"
              d="M462.4,602.07s1.47.67,1.47-1.4.75-5.91,4.53-6.92,8.65-6.32-.4-6.92c0,0-1.33-.67-2.06-.4s-8,0-5.55-5.66,6.92-10,8.28-10.18c0,0,.11-5.39,2.19-6.66s2.6-4.59,0-3.59-3.67,1.82-4,.73c0,0-1.14-2.77,1.3-3.67a7.91,7.91,0,0,1,4-.59,8.13,8.13,0,0,1,3.64-1.24s.44,0,1-.75,1.77-2.89,3.4-3.08,2.63-3.45-.86-1.82c0,0-3.58.64-3.85.14s-2.81-2.67-7.61-3-8.7-1.22-9.25-3.3-3.26-4.44-3.26-4.44-1.45.55-1.86-.68a8.45,8.45,0,0,1-6.61-3.49s-2.33-.68-2.31-2.18.27-.81-2.31-.45-11.8.73-14.32.09c0,0-3.13.45-4.89.86,0,0-7.38,1.45-10.83-2.4s-6.66-1.09-8,1.13-4.4,3.18-5,3.49-11,.23-11,.23L381,540.45l-2.95,1.41-1.94-.36-3.49,4.62s-2.9.41-3.26,2.85.81.09,1.08.09,1.5.64,1.09,1.54-.27,4-1,4.13a8.88,8.88,0,0,1-2.13-.1s-3,2.09-3.44,1.82a21.43,21.43,0,0,0-3.63-.55s.59-2.81-.09-2.81a10.34,10.34,0,0,0-2,.37l-1.59,2.94V560a1.88,1.88,0,0,1,1,.45c.59.45.28,1.27,1,1.4,0,0,2.63.29,2.51,1s6.73.73,9.19.54,6.12,3.64,8.06,3,7-3.12,8.05,4c0,0-.71,4.09,6.52,2.46,0,0,3.7-2.16,5.55.52s4.85-.91,4.85-.91,1.05-1.22.68.95.85,2.28.9,2.7-.63.74-.63,1.43-.53,2.28.58,2.07,2-1.91,2.49-1,1.27,2.12.32,3.07-.27,3.18.37,3.71,6.67,4.61,6.51,5.51.42,1.21-.95,1.64-1.06,2.49-.38,3.17,1.86,2.49,2.6,1.7a2.63,2.63,0,0,0,.95-1.91c-.05-.47.21,0,1-.16s.95-1.8,1.58-1.21a14.71,14.71,0,0,1,2.12,2.85c.32.64,1.64.22,1.64.22s1.75.42,1.54,1.69a1.52,1.52,0,0,0,.85,1.7s2-2.28,1.48.37a20.38,20.38,0,0,1-.8,3.72c-.47,1.57-1.8,2-.42,1.84a6.42,6.42,0,0,1,2.12,0s.95,1.77.37,2.93.16,1.22-.74,2.17c0,0-1.12-.54-1.26.68s-1.17,1.73.09,2,1.08.33,2,0a3.73,3.73,0,0,1,3,.23c1,.52,2.67-.56,3.38-1.45s2.58-2.15,1-3.61-1.92-2.39-.65-2.91a24.9,24.9,0,0,0,5.06-2.86c.52-.61,3.28-.89,3.42.42s1.13,4.65,3.1,4,5.44-1.31,5.77-2,2.3-3.47,3.38-3.18a6.68,6.68,0,0,1,2-.1C459.31,603,460.33,604,462.4,602.07Z"
              transform="translate(-6.91 -5.29)"/>
    </g>
    <g id="Lost Forest">
        <path class="cls-1"
              d="M356.39,611.06a3.21,3.21,0,0,0,.72-5c-1.4-1.76.45-2.53.45-2.53l3.95-4.62s-.59-.68-.73-3.67a10.09,10.09,0,0,0-1.31-4.76c-3.49-.32-4.94-2.18-4.9-3.22s-1.26-4.21-1.26-4.21c3.76-3.31-.73-8.11-.73-8.11l-1.13-.14s-.05-2.12-.05-2.71,4.17.09,4.85-.14,1.72.59,1.72.59,2.58-2,3-2.4a4.76,4.76,0,0,0,.23-3.94c-.64-1.45,0-1.73.76-2.38,0,0,5.8.81,8.79.26,0,0,1.7-.16,2.06.29s5.46,3.63,7,3,5.91-2.7,6.75,2.86c0,0-.17,5.69,7.52,3.51,0,0,2.92-2.32,4.95.28s4.88.1,5.05,0,.25,2,.73,2.12.26.33,0,.68-1.47,5.79,2.87,2.76c0,0,.35-.67.45.2a1,1,0,0,1,.16,1.51c-.71.83-1.23,3.73-.13,4.34s6.81,5.27,6.68,5.46.49.61,0,.68-2.1,1.48-2,2,.29,2.16,1.32,2.9l1.42,1.44s1.54.9,2.25-.19a3.36,3.36,0,0,0,.67-1.74s1.61-.22,1.58-.64.25-.68.9.51,1.12,2.42,2.41,2.13,1.73.74,1.41,1.12-.45,1.25,1,1.8c0,0,.64.93,1,.52s.42-.65.32.09a12.61,12.61,0,0,1-.9,3.47c-.35.36-2.51,2.58.84,2.16,0,0,1.28-.61,1.35.42a22.94,22.94,0,0,1-.17,2.95.76.76,0,0,1-1,0c-.61-.35-.77,1.93-.87,2.16s-1.25,1.51.1,2,.6,1,1.91.61,3.43-.53,4,.12c0,0,1.26-.28,1.26.33s-.45,2.35,1.15,2.15,2.8,2.32,3.35,2.42c0,0,.74.93,3.28-.36s4.85-2.15,4.92,1.32.19,4.44,2.47,2.86,2.28-1.7,2.93-.48.61,1.73,1.38,1.77,1,1,1.38,1,4-.25,3.86,2-.16,3.31-.55,3.66a2,2,0,0,0,.55,2.38c.74.42,2.38,1.61,2.38,1.61l.8,6.07s5,2.12,3.34,7.23c0,0,.9,1,1.16,1.35a21.87,21.87,0,0,1,0,4.38c0-.26-2.76,3.85-3.28,3.31s-2.83-2.35-3.18-2.09-4.85,1.64-4.92,1.35.48-2.93-.06-2.28-1.39,2.21-1.64,2.44.25,1.28,0,1.8-2.19,3.5-2.9,3.63-4,.39-6.17,2.64c0,0-.54,1-.48-1.38s-.39-2.87.16-3.19,2.09-2,1.09-2.15c0,0-7.33-4-7.68-4s-4.85-4.92-4.37-3.63,2.63,4.72,3.12,4.82,2.7,1.38,2.09,2.09a40.3,40.3,0,0,0-2.93,3.76c-.06.32-.26,3.83,2.28,5.4,0,0,1.26,0-1.73,3.54a7.09,7.09,0,0,1-1.71,1c-.86.32-3.82,2.5-3.72,3.76s.48,4.27,0,4.34-4.53-.32-4.63.41-1.09,3.06-1.64,2.7-2.79-1.35-3.18-1.15-5.59,2.86-5.91,3-1.13-.65-1.32,0-.68,5-.68,5,2.42,1.58,2.22,2a5.71,5.71,0,0,1-2.15,1.64,1.19,1.19,0,0,0-1,1.16c0,.61.49,5.27-.32,5A5.39,5.39,0,0,0,407,700c-2.48.94-2.54-.25-1.93-1.35s1.45-2.63.42-3.08-1.19-2-1.74-1.42-6.07,4.28-5.3,4.6,3.24,2.09,3.05,2.6.32,2.58-4.66,3.38c0,0-5.59,1.8-4.73.29s1.32-3.7.55-3.35a11.92,11.92,0,0,1-2.54.58l-1.54-1.64.74-1.44-1.09-.65-2.58,1.07s-1.44.32-1.73-.9-1-2.61-.52-3,1.32-1.26.58-1.68a4.16,4.16,0,0,1-1.28-1.31s-4.6,2.79-4.41,3.53-.42,1.35,2.35,2.25c0,0,1.54.07.61.81s-2.7,1.83-2.7,1.83-1.61,1.16-.1,1.83,1.16,1.7,2.74,1.19,3.08-1.19,2.5,0-1.38,1.35-.51,1.83,2.57,3.05-.45,3-5.31-.52-5.24.48a19.31,19.31,0,0,1-.36,4.5c-.22.26-2.66,2.35-1.89,2a18.46,18.46,0,0,1,3.37-1c.23,0,1.32.29.87,1.28a11.36,11.36,0,0,1-1.06,1.83s.58,1.58-.48,1.9-1.29,1.16-2.09.42-4.79-1.83-4.76-1.16a25,25,0,0,0-.79,3.46c.07.4,1.29,1.8.87,2.18s.38,1.56.38,1.56,0,1.21-1.63.76-2.33-1.26-3.92-.31-3.52,1.63-4.06.23-1.36-1.86-.72-2.47,3.27-1.55,2.17-1.78-3.42-2.62-3.42-2.62-2.2,1.29-2.39,1.78-1-.19-1.25-1-1.11-2.62-.69-3.23-.38-2.62-.38-2.62-.15-1.59-2.31-1-3.27-.42-3.27.49a3.16,3.16,0,0,1-2.05,2.35c-1,.38-1.4.38-.76.91s1.75,2.43,2.62,2.17a6.57,6.57,0,0,1,2.39,0v1.82a8.91,8.91,0,0,0,.5,1.06s.87.69-.72,1-4.79,1.18-4.07,2.81c0,0-.19.91,2.21.57l1.13-.08s.12,2,3.16.42,4.21.91,4.1,1-.88.38.45.49.46.65.61,1.14-.84,1.56.87,1.06,1.56-.64,2.05.72,2,3.57-.11,3.42-7.94,0-7.94,0-3.3-2.33-3.56-2.14-2.66,2.85-3.08,2.66a37,37,0,0,0-8.5-.34c-2.81.34-3-1-2.55-2.2s.95-2.66-.64-3.38l-2.24.91-1.33.46s-.76,2.16-1.6,1.4-3.26-2.47-4.21-2.2-2.77,3.3-5.35,2.85-2.47-.84-.84-1.83,1.18-2.81.46-2.62a23.38,23.38,0,0,0-3,1.48s-3.34,3.5-4.26,1.41c0,0-.11-1.94-3.07-.27s-3.15.76-3.38,2.47-2.54,1-3.11.46-6.53-2.13-4.33-3.38,3.11-1.25,2.7-2.62-1.11-2.39.26-3.27,1.79-1.74,1-3.6S301,715,300.25,715s2.74-1.78,3.27-1.86a1.73,1.73,0,0,1,1.67,1.45c.15,1,.57,1.51,1.74,1.06s4.29-1.37,4.41-.27c0,0,.11,4.52.8,3.69s4.67-3.65,5.05-2.24-.31,2.43,1.4,1.7,3.91-1.06,3.8-2.31a17.06,17.06,0,0,1,.07-2.92s1.41-2,1.9-1.37,4.1,2.66,3.95,3.26-.19,3.91.64,2a14,14,0,0,1,2.24-3.46s.54-1.93,0-2.73a49.1,49.1,0,0,0-3.38-3.76l-3.57-.11s-.15-6.46-2-6.42-3-.15-3.38.61a5,5,0,0,0-.11,3.07c.27.54,1,.88.87,1.56a1.8,1.8,0,0,0,.5,1.71c.34.19.11,1.1.53,1.52a5.24,5.24,0,0,1,.76,1.74s-.19,2.13-1,1.64-1.25-1.83-2.77-.92-3.11,1.64-4.25.42-2.24-1.82-3.72-1.17-.31-1.26-.53-1.75-4.44-5-7.48-1.79a7.29,7.29,0,0,0-2-.37c-.72,0-.79-.84-.79-.84s0-5.66-2-5.92,2.36-1.56,2.81-1.63,3.27.26.76-1.68a10,10,0,0,1-3.11-3.37s2.89-3.91,3.45-3.84,4.67,1.9,4.67,1.9-.64,3.19-.19,3,4.18-1.79,4.18-1.79,5.35-.34,5.73-.91,0-3.53.38-3.76,5.89-.19,5.55-.79-1.37-4-.65-4.18,2.47.91,2.92-.46.31-8.84.31-8.84a8.65,8.65,0,0,0,5.35-4.1s.72-1.29,2.66.76a42.4,42.4,0,0,0,6.07-1.86c2.89-1.18,7.4-.12,7.4-.12s.76,3.31,1.49,3,5.12-3.6,6.15-3.07a4.32,4.32,0,0,1,4.82-4.37,41.3,41.3,0,0,1,4.7-2.85c.61-.07-.26-2.35-.68-3s.68-2.27.68-2.27,4.29,1.1,2.66-2.32-2.2-2.35-3.19-1.9-3.91-1.48-3.68-3.3-2.32-2.66-2.09-3.23,1.79-2,2.28-1.93,1.52-.5.23-1.86-.76-2-2.55-2.51-1.06-2.13-.45-2.62,2.09-.72,2-3.3-1-4.33,1.18-2.77,4,2.12,3.79-.35.69-5.92-3-6.79c0,0-.5.11-.57-1.75s-3-6.37-3.57-6.71S354.13,612.66,356.39,611.06Z"
              transform="translate(-6.91 -5.29)"/>
        <path class="cls-1" d="M386.75,706.71a5.94,5.94,0,0,1,1-1.76l1.77.41-.16,1.61-2.11.45Z"
              transform="translate(-6.91 -5.29)"/>
        <path class="cls-1"
              d="M393.91,709.8a19.58,19.58,0,0,0,1.35-2s3.16-1.22,3.67-1.09,1.57.45,1.57.45l2.61-2.54s-.16-.9.48-.8,1.35-.19,1.25.45-.28,3.63-.28,3.63l-1.1,2.09s-3.18.1-4.92,1.77c0,0-3.53-2-4-1.83A.51.51,0,0,1,393.91,709.8Z"
              transform="translate(-6.91 -5.29)"/>
        <path class="cls-1" d="M396,721.73a15.85,15.85,0,0,0,0,2.18l4.82.16.58-1.19-1.58-.67-1.48-.16-.9-1Z"
              transform="translate(-6.91 -5.29)"/>
        <path class="cls-1"
              d="M381,713.08a8.39,8.39,0,0,1,1-1.35s3.92-.61,3.82.22-.13,1.71-.13,1.71l.77,1.28-1.76,2.12-2.74-.93.29-1.41Z"
              transform="translate(-6.91 -5.29)"/>
        <path class="cls-1"
              d="M370.68,745.91c.15-.46.45-1.71.45-1.71s2.77-1,2.92-.31a3,3,0,0,1,0,1.71,4.48,4.48,0,0,1-2.39,1.37C371.21,746.86,370.68,745.91,370.68,745.91Z"
              transform="translate(-6.91 -5.29)"/>
        <path class="cls-1"
              d="M366,732.62c-.08-.42.91-.61.91-.61l.68-1.4.57-1.67,4.25-.23v1.44l1.75.12v2.2l-2.51.15-.41,1.37-1.86.49s.68,2.43-.38,2a7.22,7.22,0,0,1-2-1,11.39,11.39,0,0,1,.08-1.21l-1.07-.72Z"
              transform="translate(-6.91 -5.29)"/>
        <path class="cls-1"
              d="M356.55,740c.31.19,2.51,1.06,2.47.61a24.44,24.44,0,0,0-.8-2.58s2.74-.38,3.19.23c0,0,1.86-.12,1.75.75s-.34,1.52.19,1.56a10,10,0,0,1,1.59.38s1.14,1.1-.26,1.48-2.47,1.56-2.89,1a3.49,3.49,0,0,0-2.28-1l-1.93.76a8.57,8.57,0,0,0-1-2.16C356.21,740.82,356.55,740,356.55,740Z"
              transform="translate(-6.91 -5.29)"/>
        <path class="cls-1"
              d="M340.46,618.39c.6.38,1.21,2,1.86,2.12a8.34,8.34,0,0,0,2.69-.68s1.26.76,2,.53.91-.23.26-1.25.5-2.05-.6-3.12-1.85-2.12-2.6-2.46-.52-2.43-.63-3.27-.08-1.59-.61-2.09-.23-2.27-.72-2.69-1.94-.19-2.2-1-2-5.39-3.12-3.76a3.58,3.58,0,0,1-2.39,1.75s-.87.19-.83,1-.12,1.71.72,1.93,2.88,1,1.48,2.81a30.48,30.48,0,0,0-2.77,4.6s-.57,1.1.91,1.48a6.79,6.79,0,0,1,1.33,2.16c.53,1.37,1.36,2.09,2.35,1.9A12,12,0,0,1,340.46,618.39Z"
              transform="translate(-6.91 -5.29)"/>
        <path class="cls-1" d="M221.3,547.53c-.27.62-1,1-.61,1.45s1.3,1.51,2,1.16,0-2.61,0-2.61Z"
              transform="translate(-6.91 -5.29)"/>
        <path class="cls-1"
              d="M215.6,556.94c0,.21.42,2.95,1,3a20,20,0,0,0,3-.41s-.62-2.75-1.58-2.61A13.41,13.41,0,0,1,215.6,556.94Z"
              transform="translate(-6.91 -5.29)"/>
        <path class="cls-1"
              d="M233,594.16c-.07.21.48,2.06,1.44,2.06s5.15-.69,4.53-1.37a2.57,2.57,0,0,0-1.72-.69l-.68-.89a9.35,9.35,0,0,0-1.79.61A5,5,0,0,1,233,594.16Z"
              transform="translate(-6.91 -5.29)"/>
        <path class="cls-1"
              d="M209.22,577.2c.27-.14,2.47.69,2.81,0s1.17-2,.83-2.47-1.86-2.2-1.86-2.2a7.46,7.46,0,0,0,1.58-1.51c.21-.48.62-4.81.9-4.6s2.12,2.68,3.15,3,2.61.55,2.48,1.24-2.06,1.37-1.93,2.61-.34,1,1.31,1.92,2.47,1.78,1.85,3a2.41,2.41,0,0,1-2.26,1.44c-.9.07-2.75-1.1-2,.69a13.64,13.64,0,0,1,.9,2.61s-1.51,1.85-1.38,2.88,3.09,5.63,4.06,5.63,1.92-1.44,1.92-.55a1.9,1.9,0,0,0,1.37,1.72c.69.28,1.1.69,0,1.44s.76.9,1.65.79,3.71-.1,3.71.79,0,1.31-1,1.44-2.75.14-4,1-2.61-.28-3-1.1a1,1,0,0,0-1.65-.62c-.68.41-1.37,1-1.78-.76a1.83,1.83,0,0,0-1.38-.72c-.82,0-.2-.24-.48-.65s-1.71-.69-2.19-1.24-1.86-2.47-2.54-2.47,2-2.06,1.3-3-2.68-2.26-2.47-3.71,1.17-4.67.68-5.08A3,3,0,0,1,209.22,577.2Z"
              transform="translate(-6.91 -5.29)"/>
    </g>
    <g id="cadre">
        <polygon class="cls-2" points="0.13 0.13 0.38 0.13 0.13 0.27 0.13 0.13"/>
        <polygon class="cls-2" points="1165.33 0.13 1165.33 0.47 1165.04 0.13 1165.33 0.13"/>
        <polygon class="cls-2" points="1165.33 785.16 1165.33 784.72 1165.03 785.07 1164.95 785.16 1165.33 785.16"/>
        <polygon class="cls-2" points="0.13 785.16 0.51 785.16 0.13 785 0.13 785.16"/>
    </g>
</svg>